<svg width="50" height="50" viewBox="0 0 50 50" fill="none" xmlns="http://www.w3.org/2000/svg">
<rect width="50" height="50" rx="25" fill="#EAEBFF"/>
<g clip-path="url(#clip0_7_68)">
<mask id="mask0_7_68" style="mask-type:luminance" maskUnits="userSpaceOnUse" x="8" y="8" width="34" height="34">
<path d="M42 8H8V42H42V8Z" fill="white"/>
</mask>
<g mask="url(#mask0_7_68)">
<g filter="url(#filter0_d_7_68)">
<path d="M28.3101 25.491L27.9417 24.886C27.7033 25.0312 27.5724 25.3028 27.6074 25.5797C27.6422 25.8565 27.8365 26.0872 28.1035 26.1686L28.3101 25.491ZM21.6898 25.491L21.8964 26.1686C22.1634 26.0872 22.3576 25.8565 22.3926 25.5797C22.4275 25.3028 22.2966 25.0312 22.0582 24.886L21.6898 25.491ZM30.6667 20.0417C30.6667 22.093 29.5771 23.8905 27.9417 24.886L28.6784 26.0961C30.7184 24.8542 32.0833 22.6077 32.0833 20.0417H30.6667ZM25 14.375C28.1296 14.375 30.6667 16.9121 30.6667 20.0417H32.0833C32.0833 16.1297 28.912 12.9583 25 12.9583V14.375ZM19.3333 20.0417C19.3333 16.9121 21.8703 14.375 25 14.375V12.9583C21.0879 12.9583 17.9166 16.1297 17.9166 20.0417H19.3333ZM22.0582 24.886C20.4228 23.8905 19.3333 22.093 19.3333 20.0417H17.9166C17.9166 22.6077 19.2815 24.8542 21.3215 26.0961L22.0582 24.886ZM21.4833 24.8134C17.0112 26.1771 13.6434 30.0722 13.0511 34.832L14.4569 35.0069C14.9791 30.8109 17.9504 27.3718 21.8964 26.1686L21.4833 24.8134ZM13.0511 34.832C12.8945 36.09 13.9366 37.0417 15.0833 37.0417V35.625C14.6652 35.625 14.4202 35.3019 14.4569 35.0069L13.0511 34.832ZM15.0833 37.0417H34.9167V35.625H15.0833V37.0417ZM34.9167 37.0417C36.0633 37.0417 37.1054 36.09 36.9489 34.832L35.543 35.0069C35.5797 35.3019 35.3347 35.625 34.9167 35.625V37.0417ZM36.9489 34.832C36.3566 30.0722 32.9887 26.1771 28.5166 24.8134L28.1035 26.1686C32.0495 27.3718 35.0208 30.8109 35.543 35.0069L36.9489 34.832Z" fill="#1E3AE6"/>
</g>
</g>
</g>
<defs>
<filter id="filter0_d_7_68" x="10.5354" y="12.9583" width="28.9292" height="29.0833" filterUnits="userSpaceOnUse" color-interpolation-filters="sRGB">
<feFlood flood-opacity="0" result="BackgroundImageFix"/>
<feColorMatrix in="SourceAlpha" type="matrix" values="0 0 0 0 0 0 0 0 0 0 0 0 0 0 0 0 0 0 127 0" result="hardAlpha"/>
<feOffset dy="2.5"/>
<feGaussianBlur stdDeviation="1.25"/>
<feColorMatrix type="matrix" values="0 0 0 0 0 0 0 0 0 0 0 0 0 0 0 0 0 0 0.1 0"/>
<feBlend mode="normal" in2="BackgroundImageFix" result="effect1_dropShadow_7_68"/>
<feBlend mode="normal" in="SourceGraphic" in2="effect1_dropShadow_7_68" result="shape"/>
</filter>
<clipPath id="clip0_7_68">
<rect width="34" height="34" fill="white" transform="translate(8 8)"/>
</clipPath>
</defs>
</svg>
