<svg width="50" height="50" viewBox="0 0 50 50" fill="none" xmlns="http://www.w3.org/2000/svg">
<rect width="50" height="50" rx="25" fill="#FFF2E1"/>
<g clip-path="url(#clip0_7_119)">
<path fill-rule="evenodd" clip-rule="evenodd" d="M22.2143 22.2143C22.2152 21.6989 21.8011 21.2848 21.2857 21.2857C20.7704 21.2866 20.3581 21.6989 20.3571 22.2143V28.7143C20.3571 29.2296 20.7704 29.6438 21.2857 29.6429H27.7857C28.3011 29.6419 28.7134 29.2306 28.7143 28.7143C28.7152 28.198 28.3011 27.7848 27.7857 27.7857H23.6155L37.3435 14.0586C37.7066 13.6956 37.7066 13.1069 37.3435 12.7447C36.9804 12.3826 36.3926 12.3826 36.0305 12.7447L22.2143 26.561V22.2143ZM36.1429 24.0714V34.2857C36.1429 35.2951 35.2941 36.1429 34.2857 36.1429L15.6539 36.1735C14.6446 36.1735 13.8265 35.3554 13.8265 34.3461L13.8571 15.7143C13.8571 14.7049 14.7059 13.8571 15.7143 13.8571H25.9286V12H15.7143C13.6965 12 12 14.0623 12 16.0801V34.3461C12 36.3639 13.6361 38 15.6539 38H33.9198C35.9376 38 38 36.3035 38 34.2857V24.0714H36.1429Z" fill="#F7943C"/>
</g>
<defs>
<clipPath id="clip0_7_119">
<rect width="26" height="26" fill="white" transform="translate(12 12)"/>
</clipPath>
</defs>
</svg>
