<svg width="50" height="50" viewBox="0 0 50 50" fill="none" xmlns="http://www.w3.org/2000/svg">
<rect width="50" height="50" rx="25" fill="#FF3838" fill-opacity="0.2"/>
<path d="M23.4546 21.649C23.4546 22.5025 24.1466 23.1944 25 23.1944C25.8535 23.1944 26.5455 22.5025 26.5455 21.649H23.4546ZM26.5455 9.54541C26.5455 8.69191 25.8535 8 25 8C24.1466 8 23.4546 8.69191 23.4546 9.54541H26.5455ZM19.4589 15.0297C20.2357 14.676 20.5785 13.7595 20.2249 12.9828C19.8712 12.206 18.9547 11.8631 18.178 12.2168L19.4589 15.0297ZM10.5763 26.3594L9.03064 26.3514L9.03095 26.3774L10.5763 26.3594ZM25 40.4535L25.0178 38.9081C25.006 38.9081 24.9941 38.9081 24.9823 38.9081L25 40.4535ZM39.4238 26.3594L40.9694 26.3774L40.9692 26.3514L39.4238 26.3594ZM31.8221 12.2168C31.0453 11.8631 30.1289 12.206 29.7751 12.9828C29.4216 13.7595 29.7644 14.676 30.5413 15.0297L31.8221 12.2168ZM26.5455 21.649V9.54541H23.4546V21.649H26.5455ZM18.178 12.2168C12.6336 14.7415 9.06256 20.2592 9.03064 26.3514L12.1216 26.3675C12.1473 21.4808 15.0115 17.0548 19.4589 15.0297L18.178 12.2168ZM9.03095 26.3774C9.13253 35.1056 16.2897 42.0991 25.0178 41.9989L24.9823 38.9081C17.9609 38.9889 12.2033 33.3628 12.1216 26.3415L9.03095 26.3774ZM24.9823 41.9989C33.7104 42.0991 40.8681 35.1056 40.9694 26.3774L37.8786 26.3415C37.7968 33.3628 32.0393 38.9889 25.0178 38.9081L24.9823 41.9989ZM40.9692 26.3514C40.9373 20.2592 37.3666 14.7415 31.8221 12.2168L30.5413 15.0297C34.9885 17.0548 37.8529 21.4808 37.8784 26.3675L40.9692 26.3514Z" fill="#FF3838"/>
</svg>
