<svg width="50" height="50" viewBox="0 0 50 50" fill="none" xmlns="http://www.w3.org/2000/svg">
<rect width="50" height="50" rx="25" fill="#EAFFF1"/>
<rect width="35" height="35" transform="translate(7.5 7.5)" fill="#EAFFF1"/>
<path d="M25 19.1667V25L28.6458 28.6458" stroke="#32C764" stroke-width="3.75" stroke-linecap="round" stroke-linejoin="round"/>
<mask id="path-3-inside-1_162_988" fill="white">
<path d="M13.826 17.5196L12.7323 17.5251C12.7353 18.1249 13.2208 18.6104 13.8205 18.6134L13.826 17.5196ZM17.5328 18.632C18.1369 18.6351 18.629 18.1478 18.632 17.5438C18.6351 16.9397 18.1478 16.4476 17.5438 16.4446L17.5328 18.632ZM14.9011 13.8019C14.8981 13.1978 14.4059 12.7106 13.8019 12.7136C13.1978 12.7167 12.7106 13.2088 12.7136 13.8129L14.9011 13.8019ZM12.9688 25C12.9688 24.396 12.4791 23.9062 11.875 23.9062C11.2709 23.9062 10.7812 24.396 10.7812 25H12.9688ZM32.1101 37.3159C32.6331 37.0135 32.8117 36.3444 32.5093 35.8214C32.2068 35.2986 31.5377 35.1198 31.0149 35.4224L32.1101 37.3159ZM35.4224 31.0149C35.1198 31.5377 35.2986 32.2068 35.8214 32.5093C36.3444 32.8117 37.0135 32.6331 37.3159 32.1101L35.4224 31.0149ZM14.9963 14.8956C14.5671 15.3206 14.5636 16.0131 14.9886 16.4424C15.4136 16.8716 16.1061 16.8751 16.5354 16.4501L14.9963 14.8956ZM35.0075 14.9927C29.4364 9.42159 20.4337 9.36518 14.8994 14.8994L16.4462 16.4462C21.1116 11.7809 28.7293 11.808 33.4608 16.5395L35.0075 14.9927ZM14.8994 14.8994L13.0526 16.7462L14.5994 18.293L16.4462 16.4462L14.8994 14.8994ZM13.8205 18.6134L17.5328 18.632L17.5438 16.4446L13.8315 16.4259L13.8205 18.6134ZM14.9198 17.5141L14.9011 13.8019L12.7136 13.8129L12.7323 17.5251L14.9198 17.5141ZM25 12.9688C31.6446 12.9688 37.0312 18.3553 37.0312 25H39.2188C39.2188 17.1472 32.8528 10.7812 25 10.7812V12.9688ZM25 37.0312C18.3553 37.0312 12.9688 31.6446 12.9688 25H10.7812C10.7812 32.8528 17.1472 39.2188 25 39.2188V37.0312ZM31.0149 35.4224C29.2464 36.4454 27.1932 37.0312 25 37.0312V39.2188C27.5881 39.2188 30.0177 38.5263 32.1101 37.3159L31.0149 35.4224ZM37.0312 25C37.0312 27.1932 36.4454 29.2464 35.4224 31.0149L37.3159 32.1101C38.5263 30.0177 39.2188 27.5881 39.2188 25H37.0312ZM16.5354 16.4501C18.7103 14.2967 21.699 12.9688 25 12.9688V10.7812C21.0996 10.7812 17.5641 12.3532 14.9963 14.8956L16.5354 16.4501Z"/>
</mask>
<path d="M13.826 17.5196L12.7323 17.5251C12.7353 18.1249 13.2208 18.6104 13.8205 18.6134L13.826 17.5196ZM17.5328 18.632C18.1369 18.6351 18.629 18.1478 18.632 17.5438C18.6351 16.9397 18.1478 16.4476 17.5438 16.4446L17.5328 18.632ZM14.9011 13.8019C14.8981 13.1978 14.4059 12.7106 13.8019 12.7136C13.1978 12.7167 12.7106 13.2088 12.7136 13.8129L14.9011 13.8019ZM12.9688 25C12.9688 24.396 12.4791 23.9062 11.875 23.9062C11.2709 23.9062 10.7812 24.396 10.7812 25H12.9688ZM32.1101 37.3159C32.6331 37.0135 32.8117 36.3444 32.5093 35.8214C32.2068 35.2986 31.5377 35.1198 31.0149 35.4224L32.1101 37.3159ZM35.4224 31.0149C35.1198 31.5377 35.2986 32.2068 35.8214 32.5093C36.3444 32.8117 37.0135 32.6331 37.3159 32.1101L35.4224 31.0149ZM14.9963 14.8956C14.5671 15.3206 14.5636 16.0131 14.9886 16.4424C15.4136 16.8716 16.1061 16.8751 16.5354 16.4501L14.9963 14.8956ZM35.0075 14.9927C29.4364 9.42159 20.4337 9.36518 14.8994 14.8994L16.4462 16.4462C21.1116 11.7809 28.7293 11.808 33.4608 16.5395L35.0075 14.9927ZM14.8994 14.8994L13.0526 16.7462L14.5994 18.293L16.4462 16.4462L14.8994 14.8994ZM13.8205 18.6134L17.5328 18.632L17.5438 16.4446L13.8315 16.4259L13.8205 18.6134ZM14.9198 17.5141L14.9011 13.8019L12.7136 13.8129L12.7323 17.5251L14.9198 17.5141ZM25 12.9688C31.6446 12.9688 37.0312 18.3553 37.0312 25H39.2188C39.2188 17.1472 32.8528 10.7812 25 10.7812V12.9688ZM25 37.0312C18.3553 37.0312 12.9688 31.6446 12.9688 25H10.7812C10.7812 32.8528 17.1472 39.2188 25 39.2188V37.0312ZM31.0149 35.4224C29.2464 36.4454 27.1932 37.0312 25 37.0312V39.2188C27.5881 39.2188 30.0177 38.5263 32.1101 37.3159L31.0149 35.4224ZM37.0312 25C37.0312 27.1932 36.4454 29.2464 35.4224 31.0149L37.3159 32.1101C38.5263 30.0177 39.2188 27.5881 39.2188 25H37.0312ZM16.5354 16.4501C18.7103 14.2967 21.699 12.9688 25 12.9688V10.7812C21.0996 10.7812 17.5641 12.3532 14.9963 14.8956L16.5354 16.4501Z" fill="#1C274C"/>
<path d="M16.5567 14.789L15.7833 14.0156L14.0156 15.7833L14.789 16.5567L16.5567 14.789ZM16.2938 16.4383L16.2828 18.6257L18.7828 18.6383L18.7938 16.4508L16.2938 16.4383ZM12.7199 15.0628L14.9074 15.0519L14.8948 12.5519L12.7074 12.5629L12.7199 15.0628ZM10.7812 26.25H12.9688V23.75H10.7812V26.25ZM29.9329 36.0483L31.0281 37.9418L33.1921 36.6901L32.0969 34.7966L29.9329 36.0483ZM37.9418 31.0281L36.0483 29.9329L34.7966 32.0969L36.6901 33.1921L37.9418 31.0281ZM17.4237 15.5706L15.8846 14.0161L14.108 15.7751L15.6471 17.3295L17.4237 15.5706ZM14.0156 15.7833L15.5624 17.3301L17.3301 15.5624L15.7833 14.0156L14.0156 15.7833ZM37.0312 26.25H39.2188V23.75H37.0312V26.25ZM23.75 10.7812V12.9688H26.25V10.7812H23.75ZM26.25 39.2188V37.0312H23.75V39.2188H26.25ZM14.8994 14.8994L16.6672 16.6672L16.6672 16.6672L14.8994 14.8994ZM13.826 17.5196L16.326 17.5322L16.3387 15.007L13.8135 15.0197L13.826 17.5196ZM13.8205 18.6134L13.808 21.1133H13.808L13.8205 18.6134ZM17.5328 18.632L17.5202 21.132L17.5202 21.132L17.5328 18.632ZM17.5438 16.4446L17.5312 18.9445H17.5312L17.5438 16.4446ZM14.9011 13.8019L17.4011 13.7893L17.4011 13.7893L14.9011 13.8019ZM13.8019 12.7136L13.7893 10.2137L13.7893 10.2137L13.8019 12.7136ZM12.7136 13.8129L15.2136 13.8003L15.2136 13.8002L12.7136 13.8129ZM32.1101 37.3159L30.8585 35.1518L30.8583 35.1519L32.1101 37.3159ZM32.5093 35.8214L34.6734 34.5698L34.6732 34.5695L32.5093 35.8214ZM31.0149 35.4224L32.2667 37.5864L32.2673 37.5861L31.0149 35.4224ZM35.4224 31.0149L37.5861 32.2673L37.5864 32.2667L35.4224 31.0149ZM35.8214 32.5093L34.5695 34.6732L34.5698 34.6734L35.8214 32.5093ZM37.3159 32.1101L35.1519 30.8583L35.1518 30.8585L37.3159 32.1101ZM14.9963 14.8956L16.7552 16.6721L16.7553 16.6721L14.9963 14.8956ZM14.9886 16.4424L16.7652 14.6834L16.7651 14.6834L14.9886 16.4424ZM16.5354 16.4501L18.2943 18.2266L18.2943 18.2266L16.5354 16.4501ZM35.0075 14.9927L36.7753 16.7604L38.543 14.9927L36.7753 13.2249L35.0075 14.9927ZM16.4462 16.4462L18.214 18.214L18.214 18.214L16.4462 16.4462ZM33.4608 16.5395L31.6931 18.3073L33.4609 20.0751L35.2286 18.3072L33.4608 16.5395ZM13.0526 16.7462L11.2849 14.9785L9.5171 16.7462L11.2849 18.514L13.0526 16.7462ZM14.5994 18.293L12.8317 20.0608L14.5994 21.8286L16.3672 20.0608L14.5994 18.293ZM13.8315 16.4259L13.8441 13.9259L11.3441 13.9134L11.3316 16.4133L13.8315 16.4259ZM14.9198 17.5141L14.9323 20.0141L17.4323 20.0015L17.4197 17.5016L14.9198 17.5141ZM13.8135 15.0197L12.7197 15.0252L12.7449 20.0251L13.8386 20.0196L13.8135 15.0197ZM10.2323 17.5377C10.2422 19.5084 11.8373 21.1034 13.808 21.1133L13.8331 16.1134C14.6042 16.1173 15.2284 16.7414 15.2323 17.5126L10.2323 17.5377ZM16.3205 18.6259L16.326 17.5322L11.3261 17.5071L11.3206 18.6008L16.3205 18.6259ZM17.5202 21.132C19.505 21.142 21.122 19.5411 21.132 17.5563L16.1321 17.5312C16.136 16.7546 16.7687 16.1282 17.5453 16.1321L17.5202 21.132ZM21.132 17.5563C21.142 15.5716 19.5411 13.9546 17.5563 13.9446L17.5312 18.9445C16.7546 18.9406 16.1282 18.3078 16.1321 17.5312L21.132 17.5563ZM17.4011 13.7893C17.3911 11.8046 15.7741 10.2037 13.7893 10.2137L13.8144 15.2136C13.0377 15.2175 12.4051 14.591 12.4011 13.8145L17.4011 13.7893ZM13.7893 10.2137C11.8046 10.2237 10.2037 11.8406 10.2137 13.8255L15.2136 13.8002C15.2175 14.577 14.591 15.2097 13.8145 15.2136L13.7893 10.2137ZM15.4688 25C15.4688 23.0153 13.8598 21.4062 11.875 21.4062V26.4062C11.0983 26.4062 10.4688 25.7766 10.4688 25H15.4688ZM11.875 21.4062C9.89021 21.4062 8.28125 23.0153 8.28125 25H13.2812C13.2812 25.7766 12.6517 26.4062 11.875 26.4062V21.4062ZM33.3617 39.48C35.0802 38.4861 35.6669 36.2876 34.6734 34.5698L30.3451 37.0731C29.9565 36.4011 30.1859 35.5408 30.8585 35.1518L33.3617 39.48ZM34.6732 34.5695C33.6796 32.8521 31.4812 32.264 29.7625 33.2587L32.2673 37.5861C31.5942 37.9757 30.7339 37.7451 30.3453 37.0733L34.6732 34.5695ZM33.2587 29.7625C32.264 31.4812 32.8521 33.6796 34.5695 34.6732L37.0733 30.3453C37.7451 30.7339 37.9757 31.5942 37.5861 32.2673L33.2587 29.7625ZM34.5698 34.6734C36.2876 35.6669 38.4861 35.0802 39.48 33.3617L35.1518 30.8585C35.5408 30.1859 36.4011 29.9565 37.0731 30.3451L34.5698 34.6734ZM13.2374 13.119C11.827 14.5155 11.8156 16.7909 13.2121 18.2013L16.7651 14.6834C17.3116 15.2353 17.3071 16.1257 16.7552 16.6721L13.2374 13.119ZM13.2121 18.2013C14.6085 19.6118 16.8839 19.623 18.2943 18.2266L14.7764 14.6735C15.3283 14.1271 16.2187 14.1315 16.7652 14.6834L13.2121 18.2013ZM36.7753 13.2249C30.245 6.69469 19.6593 6.60401 13.1317 13.1317L16.6672 16.6672C21.2081 12.1264 28.6278 12.1485 33.2398 16.7605L36.7753 13.2249ZM18.214 18.214C21.8868 14.5412 27.9215 14.5357 31.6931 18.3073L35.2286 14.7717C29.537 9.08023 20.3364 9.02053 14.6785 14.6785L18.214 18.214ZM35.2286 18.3072L36.7753 16.7604L33.2397 13.225L31.693 14.7718L35.2286 18.3072ZM13.1317 13.1317L11.2849 14.9785L14.8204 18.514L16.6672 16.6672L13.1317 13.1317ZM11.2849 18.514L12.8317 20.0608L16.3672 16.5253L14.8204 14.9785L11.2849 18.514ZM16.3672 20.0608L18.214 18.214L14.6785 14.6785L12.8317 16.5253L16.3672 20.0608ZM13.808 21.1133L17.5202 21.132L17.5454 16.1321L13.8331 16.1134L13.808 21.1133ZM17.5564 13.9446L13.8441 13.9259L13.819 18.9259L17.5312 18.9445L17.5564 13.9446ZM11.3316 16.4133L11.3206 18.6008L16.3205 18.6259L16.3315 16.4385L11.3316 16.4133ZM17.4197 17.5016L17.4011 13.7893L12.4011 13.8144L12.4198 17.5267L17.4197 17.5016ZM10.2137 13.8254L10.2323 17.5377L15.2323 17.5126L15.2136 13.8003L10.2137 13.8254ZM12.7449 20.0251L14.9323 20.0141L14.9072 15.0142L12.7197 15.0252L12.7449 20.0251ZM25 15.4688C30.2639 15.4688 34.5312 19.736 34.5312 25H39.5312C39.5312 16.9746 33.0253 10.4688 25 10.4688V15.4688ZM41.7188 25C41.7188 15.7665 34.2335 8.28125 25 8.28125V13.2812C31.4721 13.2812 36.7188 18.5279 36.7188 25H41.7188ZM25 34.5312C19.736 34.5312 15.4688 30.2639 15.4688 25H10.4688C10.4688 33.0253 16.9746 39.5312 25 39.5312V34.5312ZM8.28125 25C8.28125 34.2335 15.7665 41.7188 25 41.7188V36.7188C18.5279 36.7188 13.2812 31.4721 13.2812 25H8.28125ZM29.7631 33.2584C28.3649 34.0672 26.7421 34.5312 25 34.5312V39.5312C27.6443 39.5312 30.1278 38.8237 32.2667 37.5864L29.7631 33.2584ZM25 41.7188C28.0393 41.7188 30.8992 40.9045 33.3619 39.4799L30.8583 35.1519C29.1361 36.1481 27.1369 36.7188 25 36.7188V41.7188ZM34.5312 25C34.5312 26.7421 34.0672 28.3649 33.2584 29.7631L37.5864 32.2667C38.8237 30.1278 39.5312 27.6443 39.5312 25H34.5312ZM39.4799 33.3619C40.9045 30.8992 41.7188 28.0393 41.7188 25H36.7188C36.7188 27.1369 36.1481 29.1361 35.1519 30.8583L39.4799 33.3619ZM18.2943 18.2266C20.0201 16.5179 22.3839 15.4688 25 15.4688V10.4688C21.0141 10.4688 17.4005 12.0754 14.7764 14.6735L18.2943 18.2266ZM25 8.28125C20.4144 8.28125 16.2542 10.1321 13.2374 13.119L16.7553 16.6721C18.8741 14.5743 21.7848 13.2812 25 13.2812V8.28125Z" fill="#32C764" mask="url(#path-3-inside-1_162_988)"/>
</svg>
