<svg width="50" height="50" viewBox="0 0 50 50" fill="none" xmlns="http://www.w3.org/2000/svg">
<rect width="50" height="50" rx="25" fill="#FFF9C5"/>
<path d="M25.7842 11.5331C25.5829 11.3129 25.2984 11.1875 25 11.1875C24.7017 11.1875 24.4172 11.3129 24.2159 11.5331L18.5492 17.731C18.1533 18.164 18.1834 18.8361 18.6164 19.2321C19.0495 19.628 19.7216 19.5979 20.1175 19.1649L23.9375 14.9867V30.6667C23.9375 31.2535 24.4133 31.7292 25 31.7292C25.5868 31.7292 26.0625 31.2535 26.0625 30.6667V14.9867L29.8826 19.1649C30.2785 19.5979 30.9506 19.628 31.3837 19.2321C31.8168 18.8361 31.8468 18.164 31.4508 17.731L25.7842 11.5331Z" fill="#F78723"/>
<path d="M13.3125 28.7917C13.3125 28.2049 12.8368 27.7292 12.25 27.7292C11.6632 27.7292 11.1875 28.2049 11.1875 28.7917V28.8694C11.1875 30.8069 11.1874 32.3685 11.3526 33.5967C11.524 34.8719 11.8908 35.9454 12.7435 36.7981C13.5962 37.6509 14.6699 38.0177 15.945 38.1891C17.1732 38.3542 18.7348 38.3542 20.6723 38.3542H29.3278C31.2652 38.3542 32.8268 38.3542 34.055 38.1891C35.3302 38.0177 36.4037 37.6509 37.2566 36.7981C38.1093 35.9454 38.476 34.8719 38.6475 33.5967C38.8125 32.3685 38.8125 30.8069 38.8125 28.8694V28.7917C38.8125 28.2049 38.3368 27.7292 37.75 27.7292C37.1632 27.7292 36.6875 28.2049 36.6875 28.7917C36.6875 30.8252 36.6852 32.2434 36.5414 33.3135C36.4016 34.3531 36.146 34.9035 35.7539 35.2956C35.3618 35.6877 34.8114 35.9433 33.7719 36.0831C32.7017 36.2269 31.2835 36.2292 29.25 36.2292H20.75C18.7165 36.2292 17.2982 36.2269 16.2282 36.0831C15.1887 35.9433 14.6382 35.6877 14.2461 35.2956C13.854 34.9035 13.5984 34.3531 13.4586 33.3135C13.3148 32.2434 13.3125 30.8252 13.3125 28.7917Z" fill="#F78723"/>
</svg>
