<svg width="300" height="300" viewBox="0 0 300 300" fill="none" xmlns="http://www.w3.org/2000/svg">
<path d="M24.852 178.632L29.538 175.926C29.538 175.926 32.328 164.328 31.218 153.9C29.652 139.23 19.998 133.71 16.326 134.976C12.654 136.242 11.592 140.508 17.67 149.244C21.252 154.398 25.656 165.132 24.852 178.632Z" fill="#52BFBC"/>
<g opacity="0.65">
<path d="M24.852 178.632L29.538 175.926C29.538 175.926 32.328 164.328 31.218 153.9C29.652 139.23 19.998 133.71 16.326 134.976C12.654 136.242 11.592 140.508 17.67 149.244C21.252 154.398 25.656 165.132 24.852 178.632Z" fill="white"/>
</g>
<path d="M26.796 172.938H26.748C26.6637 172.922 26.5892 172.873 26.5408 172.802C26.4925 172.731 26.4742 172.644 26.49 172.56C29.058 159 24.336 143.82 18.48 137.496C18.4219 137.432 18.3915 137.348 18.3954 137.262C18.3994 137.176 18.4373 137.095 18.501 137.037C18.5646 136.979 18.6488 136.949 18.7348 136.952C18.8209 136.956 18.9019 136.994 18.96 137.058C24.918 143.496 29.76 158.946 27.126 172.674C27.1117 172.75 27.0705 172.819 27.0099 172.867C26.9494 172.916 26.8735 172.941 26.796 172.938Z" fill="white"/>
<path d="M13.05 185.442C12.354 185.802 10.488 184.206 9.97199 183.822C9.08333 183.146 8.38299 182.254 7.93799 181.23C7.43632 180.07 7.31043 178.781 7.57799 177.546C7.72109 176.894 7.90955 176.252 8.14199 175.626C8.35199 175.026 8.56199 174.39 8.77799 173.766C9.02843 173.168 9.15498 172.525 9.14999 171.876C9.04799 170.58 7.94999 169.62 6.94799 168.786C5.83799 167.862 4.69799 166.668 4.78199 165.114C4.92763 163.911 5.4678 162.791 6.31799 161.928C7.10399 161.028 8.02799 160.236 8.75399 159.282C9.32045 158.609 9.63822 157.762 9.65399 156.882C9.60961 156.345 9.45651 155.822 9.20399 155.346C8.62133 154.352 8.11971 153.313 7.70399 152.238C7.38599 151.134 7.50599 149.784 8.39399 149.046C8.78823 148.785 9.23013 148.603 9.69445 148.513C10.1588 148.422 10.6364 148.424 11.1 148.518C11.9768 148.672 12.8098 149.014 13.542 149.52C15.942 151.014 17.202 154.008 19.764 155.196C20.7858 155.57 21.8298 155.881 22.89 156.126C23.4211 156.254 23.9199 156.49 24.3547 156.821C24.7895 157.151 25.1509 157.568 25.416 158.046C26.28 160.014 24.378 162.294 24.948 164.364C25.458 166.164 27.174 166.974 28.074 168.648C28.4421 169.391 28.562 170.232 28.416 171.048C28.2608 172.423 27.8541 173.757 27.216 174.984C26.4998 176.244 25.7083 177.461 24.846 178.626C24.846 178.626 13.158 185.4 13.05 185.442Z" fill="#52BFBC"/>
<g opacity="0.3">
<path d="M13.05 185.442C12.354 185.802 10.488 184.206 9.97199 183.822C9.08333 183.146 8.38299 182.254 7.93799 181.23C7.43632 180.07 7.31043 178.781 7.57799 177.546C7.72109 176.894 7.90955 176.252 8.14199 175.626C8.35199 175.026 8.56199 174.39 8.77799 173.766C9.02843 173.168 9.15498 172.525 9.14999 171.876C9.04799 170.58 7.94999 169.62 6.94799 168.786C5.83799 167.862 4.69799 166.668 4.78199 165.114C4.92763 163.911 5.4678 162.791 6.31799 161.928C7.10399 161.028 8.02799 160.236 8.75399 159.282C9.32045 158.609 9.63822 157.762 9.65399 156.882C9.60961 156.345 9.45651 155.822 9.20399 155.346C8.62133 154.352 8.11971 153.313 7.70399 152.238C7.38599 151.134 7.50599 149.784 8.39399 149.046C8.78823 148.785 9.23013 148.603 9.69445 148.513C10.1588 148.422 10.6364 148.424 11.1 148.518C11.9768 148.672 12.8098 149.014 13.542 149.52C15.942 151.014 17.202 154.008 19.764 155.196C20.7858 155.57 21.8298 155.881 22.89 156.126C23.4211 156.254 23.9199 156.49 24.3547 156.821C24.7895 157.151 25.1509 157.568 25.416 158.046C26.28 160.014 24.378 162.294 24.948 164.364C25.458 166.164 27.174 166.974 28.074 168.648C28.4421 169.391 28.562 170.232 28.416 171.048C28.2608 172.423 27.8541 173.757 27.216 174.984C26.4998 176.244 25.7083 177.461 24.846 178.626C24.846 178.626 13.158 185.4 13.05 185.442Z" fill="white"/>
</g>
<path d="M19.836 181.908C19.7542 181.9 19.6788 181.861 19.626 181.798C19.5732 181.735 19.5473 181.654 19.554 181.572C20.676 169.404 15.612 155.652 11.628 151.53C11.5715 151.471 11.5407 151.392 11.5424 151.311C11.5441 151.229 11.5781 151.151 11.637 151.095C11.6959 151.039 11.7748 151.008 11.8563 151.009C11.9379 151.011 12.0155 151.045 12.072 151.104C16.134 155.304 21.306 169.29 20.166 181.626C20.163 181.666 20.152 181.705 20.1337 181.741C20.1155 181.777 20.0903 181.809 20.0596 181.836C20.029 181.862 19.9934 181.882 19.955 181.894C19.9167 181.907 19.8762 181.911 19.836 181.908Z" fill="white"/>
<path d="M18.63 166.908H18.54C15.6911 165.958 12.7481 165.318 9.76199 165C9.722 164.997 9.68301 164.986 9.64733 164.968C9.61165 164.949 9.58001 164.924 9.55428 164.893C9.52855 164.863 9.50925 164.827 9.49752 164.789C9.48579 164.75 9.48187 164.71 9.48599 164.67C9.48726 164.629 9.49725 164.588 9.51532 164.551C9.53339 164.513 9.55913 164.48 9.59085 164.454C9.62258 164.427 9.65957 164.408 9.6994 164.396C9.73923 164.385 9.78101 164.382 9.822 164.388C12.8582 164.7 15.8517 165.339 18.75 166.296C18.8166 166.324 18.8715 166.374 18.9054 166.437C18.9393 166.501 18.9501 166.574 18.9359 166.645C18.9218 166.716 18.8836 166.78 18.8278 166.825C18.772 166.871 18.7021 166.896 18.63 166.896V166.908Z" fill="white"/>
<path d="M275.148 178.632L270.462 175.926C270.462 175.926 267.672 164.328 268.782 153.9C270.348 139.23 280.002 133.71 283.674 134.976C287.346 136.242 288.408 140.508 282.33 149.244C278.748 154.398 274.344 165.132 275.148 178.632Z" fill="#52BFBC"/>
<g opacity="0.65">
<path d="M275.148 178.632L270.462 175.926C270.462 175.926 267.672 164.328 268.782 153.9C270.348 139.23 280.002 133.71 283.674 134.976C287.346 136.242 288.408 140.508 282.33 149.244C278.748 154.398 274.344 165.132 275.148 178.632Z" fill="white"/>
</g>
<path d="M273.204 172.938H273.252C273.336 172.922 273.411 172.873 273.459 172.802C273.507 172.731 273.526 172.644 273.51 172.56C270.942 159.03 275.664 143.826 281.52 137.502C281.578 137.438 281.608 137.354 281.605 137.268C281.601 137.182 281.563 137.101 281.499 137.043C281.435 136.985 281.351 136.955 281.265 136.958C281.179 136.962 281.098 137 281.04 137.064C275.082 143.502 270.24 158.952 272.874 172.68C272.89 172.755 272.931 172.822 272.992 172.87C273.052 172.917 273.127 172.941 273.204 172.938Z" fill="white"/>
<path d="M286.95 185.442C287.646 185.802 289.512 184.206 290.028 183.822C290.917 183.146 291.617 182.254 292.062 181.23C292.564 180.07 292.69 178.781 292.422 177.546C292.279 176.894 292.09 176.252 291.858 175.626C291.648 175.026 291.438 174.39 291.222 173.766C290.972 173.168 290.845 172.525 290.85 171.876C290.952 170.58 292.05 169.62 293.052 168.786C294.162 167.862 295.302 166.668 295.218 165.114C295.072 163.911 294.532 162.791 293.682 161.928C292.896 161.028 291.972 160.236 291.246 159.282C290.68 158.609 290.362 157.762 290.346 156.882C290.39 156.345 290.543 155.822 290.796 155.346C291.379 154.352 291.88 153.313 292.296 152.238C292.614 151.134 292.494 149.784 291.606 149.046C291.212 148.785 290.77 148.603 290.306 148.513C289.841 148.422 289.364 148.424 288.9 148.518C288.023 148.672 287.19 149.014 286.458 149.52C284.058 151.014 282.798 154.008 280.236 155.196C279.214 155.57 278.17 155.881 277.11 156.126C276.579 156.254 276.08 156.49 275.645 156.821C275.21 157.151 274.849 157.568 274.584 158.046C273.72 160.014 275.622 162.294 275.052 164.364C274.542 166.164 272.826 166.974 271.926 168.648C271.558 169.391 271.438 170.232 271.584 171.048C271.739 172.423 272.146 173.757 272.784 174.984C273.5 176.244 274.292 177.461 275.154 178.626C275.154 178.626 286.842 185.4 286.95 185.442Z" fill="#52BFBC"/>
<g opacity="0.3">
<path d="M286.95 185.442C287.646 185.802 289.512 184.206 290.028 183.822C290.917 183.146 291.617 182.254 292.062 181.23C292.564 180.07 292.69 178.781 292.422 177.546C292.279 176.894 292.09 176.252 291.858 175.626C291.648 175.026 291.438 174.39 291.222 173.766C290.972 173.168 290.845 172.525 290.85 171.876C290.952 170.58 292.05 169.62 293.052 168.786C294.162 167.862 295.302 166.668 295.218 165.114C295.072 163.911 294.532 162.791 293.682 161.928C292.896 161.028 291.972 160.236 291.246 159.282C290.68 158.609 290.362 157.762 290.346 156.882C290.39 156.345 290.543 155.822 290.796 155.346C291.379 154.352 291.88 153.313 292.296 152.238C292.614 151.134 292.494 149.784 291.606 149.046C291.212 148.785 290.77 148.603 290.306 148.513C289.841 148.422 289.364 148.424 288.9 148.518C288.023 148.672 287.19 149.014 286.458 149.52C284.058 151.014 282.798 154.008 280.236 155.196C279.214 155.57 278.17 155.881 277.11 156.126C276.579 156.254 276.08 156.49 275.645 156.821C275.21 157.151 274.849 157.568 274.584 158.046C273.72 160.014 275.622 162.294 275.052 164.364C274.542 166.164 272.826 166.974 271.926 168.648C271.558 169.391 271.438 170.232 271.584 171.048C271.739 172.423 272.146 173.757 272.784 174.984C273.5 176.244 274.292 177.461 275.154 178.626C275.154 178.626 286.842 185.4 286.95 185.442Z" fill="white"/>
</g>
<path d="M280.164 181.908C280.246 181.9 280.321 181.861 280.374 181.798C280.427 181.735 280.453 181.654 280.446 181.572C279.324 169.404 284.388 155.652 288.372 151.53C288.428 151.471 288.459 151.392 288.458 151.311C288.456 151.229 288.422 151.151 288.363 151.095C288.304 151.039 288.225 151.008 288.144 151.009C288.062 151.011 287.984 151.045 287.928 151.104C283.866 155.304 278.694 169.29 279.834 181.626C279.837 181.666 279.848 181.705 279.866 181.741C279.884 181.777 279.91 181.809 279.94 181.836C279.971 181.862 280.007 181.882 280.045 181.894C280.083 181.907 280.124 181.911 280.164 181.908Z" fill="white"/>
<path d="M281.4 166.908H281.49C284.329 165.96 287.262 165.321 290.238 165C290.278 164.997 290.317 164.986 290.353 164.968C290.388 164.949 290.42 164.924 290.446 164.893C290.471 164.863 290.491 164.827 290.502 164.789C290.514 164.75 290.518 164.71 290.514 164.67C290.513 164.629 290.503 164.588 290.485 164.551C290.467 164.513 290.441 164.48 290.409 164.454C290.377 164.427 290.34 164.408 290.301 164.396C290.261 164.385 290.219 164.382 290.178 164.388C287.142 164.7 284.148 165.339 281.25 166.296C281.183 166.324 281.129 166.374 281.095 166.437C281.061 166.501 281.05 166.574 281.064 166.645C281.078 166.716 281.116 166.78 281.172 166.825C281.228 166.871 281.298 166.896 281.37 166.896L281.4 166.908Z" fill="white"/>
<path d="M150 296.07C230.311 296.07 295.416 258.481 295.416 212.112C295.416 165.743 230.311 128.154 150 128.154C69.689 128.154 4.58401 165.743 4.58401 212.112C4.58401 258.481 69.689 296.07 150 296.07Z" fill="#F5F5F5"/>
<path d="M116.52 226.65L157.998 202.704L106.758 173.124L65.28 197.07L116.52 226.65Z" fill="#E0E0E0"/>
<path d="M175.956 278.832L214.554 256.548L175.956 234.264L137.364 256.548L175.956 278.832Z" fill="#E0E0E0"/>
<path d="M234.846 246.618C253.443 246.618 268.518 237.914 268.518 227.178C268.518 216.442 253.443 207.738 234.846 207.738C216.249 207.738 201.174 216.442 201.174 227.178C201.174 237.914 216.249 246.618 234.846 246.618Z" fill="#E0E0E0"/>
<path d="M59.724 250.068C83.1718 250.068 102.18 239.095 102.18 225.558C102.18 212.022 83.1718 201.048 59.724 201.048C36.2762 201.048 17.268 212.022 17.268 225.558C17.268 239.095 36.2762 250.068 59.724 250.068Z" fill="#E0E0E0"/>
<path d="M12.444 55.956C12.3724 55.9565 12.302 55.9378 12.24 55.902C12.1759 55.8664 12.1225 55.8142 12.0856 55.7508C12.0486 55.6875 12.0294 55.6153 12.03 55.542V41.832C12.0294 41.7587 12.0486 41.6865 12.0856 41.6232C12.1225 41.5598 12.1759 41.5076 12.24 41.472L24.036 34.662C24.0983 34.6238 24.1699 34.6036 24.243 34.6036C24.3161 34.6036 24.3877 34.6238 24.45 34.662C24.5126 34.6988 24.5644 34.7515 24.6002 34.8147C24.636 34.8779 24.6546 34.9494 24.654 35.022V48.738C24.6542 48.8105 24.6347 48.8816 24.5978 48.9439C24.5608 49.0062 24.5077 49.0574 24.444 49.092L12.654 55.902C12.5896 55.9373 12.5174 55.9559 12.444 55.956ZM12.858 42.066V54.828L23.826 48.498V35.736L12.858 42.066Z" fill="#E0E0E0"/>
<path d="M12.444 79.266C12.3715 79.2674 12.3003 79.2464 12.24 79.206C12.1764 79.1714 12.1232 79.1202 12.0863 79.0579C12.0493 78.9956 12.0299 78.9244 12.03 78.852V65.136C12.0294 65.0627 12.0486 64.9905 12.0856 64.9272C12.1225 64.8638 12.1759 64.8116 12.24 64.776L24.036 57.966C24.0993 57.9308 24.1706 57.9123 24.243 57.9123C24.3155 57.9123 24.3867 57.9308 24.45 57.966C24.5126 58.0028 24.5644 58.0555 24.6002 58.1187C24.636 58.1819 24.6546 58.2534 24.654 58.326V72.042C24.654 72.1152 24.6345 72.1871 24.5976 72.2503C24.5607 72.3136 24.5077 72.3659 24.444 72.402L12.654 79.2C12.592 79.242 12.519 79.265 12.444 79.266ZM12.858 65.4V78.156L23.826 71.826V59.04L12.858 65.4Z" fill="#E0E0E0"/>
<path d="M18.198 72.852L15.456 70.212L16.368 68.268L17.934 69.768L24.696 55.464L25.878 56.598L18.198 72.852Z" fill="#52BFBC"/>
<path d="M12.444 102.6C12.3724 102.6 12.302 102.582 12.24 102.546C12.1767 102.509 12.124 102.457 12.0872 102.394C12.0504 102.331 12.0306 102.259 12.03 102.186V88.44C12.03 88.3668 12.0495 88.2949 12.0864 88.2316C12.1233 88.1684 12.1763 88.1161 12.24 88.08L24.036 81.27C24.0984 81.2386 24.1677 81.2235 24.2375 81.2261C24.3072 81.2287 24.3752 81.2489 24.4351 81.2848C24.495 81.3207 24.5448 81.3712 24.5799 81.4316C24.6151 81.4919 24.6343 81.5602 24.636 81.63V95.346C24.6366 95.4193 24.6174 95.4915 24.5804 95.5548C24.5435 95.6182 24.4901 95.6704 24.426 95.706L12.654 102.516C12.5926 102.562 12.5201 102.591 12.444 102.6ZM12.858 88.71V101.466L23.826 95.136V82.35L12.858 88.71Z" fill="#E0E0E0"/>
<path d="M287.346 55.902L275.556 49.092C275.492 49.0574 275.439 49.0062 275.402 48.9439C275.365 48.8816 275.346 48.8105 275.346 48.738V35.022C275.345 34.9494 275.364 34.8779 275.4 34.8147C275.436 34.7515 275.487 34.6988 275.55 34.662C275.612 34.6238 275.684 34.6036 275.757 34.6036C275.83 34.6036 275.902 34.6238 275.964 34.662L287.76 41.472C287.824 41.5076 287.877 41.5598 287.914 41.6232C287.951 41.6865 287.971 41.7587 287.97 41.832V55.542C287.971 55.6153 287.951 55.6875 287.914 55.7508C287.877 55.8142 287.824 55.8664 287.76 55.902C287.698 55.9378 287.628 55.9565 287.556 55.956C287.483 55.9559 287.41 55.9373 287.346 55.902ZM276.174 35.736V48.498L287.142 54.828V42.066L276.174 35.736Z" fill="#E0E0E0"/>
<path d="M287.346 79.2L275.556 72.396C275.492 72.3599 275.439 72.3076 275.402 72.2443C275.365 72.1811 275.346 72.1092 275.346 72.036V58.326C275.345 58.2534 275.364 58.1819 275.4 58.1187C275.436 58.0555 275.487 58.0028 275.55 57.966C275.613 57.9308 275.685 57.9123 275.757 57.9123C275.829 57.9123 275.901 57.9308 275.964 57.966L287.76 64.8C287.824 64.8356 287.877 64.8878 287.914 64.9512C287.951 65.0145 287.971 65.0867 287.97 65.16V78.876C287.97 78.9485 287.951 79.0196 287.914 79.0819C287.877 79.1442 287.824 79.1954 287.76 79.23C287.7 79.2704 287.629 79.2914 287.556 79.29C287.478 79.282 287.405 79.2506 287.346 79.2ZM276.174 59.04V71.802L287.142 78.132V65.4L276.174 59.04Z" fill="#E0E0E0"/>
<path d="M287.346 102.516L275.556 95.706C275.492 95.6704 275.438 95.6182 275.402 95.5548C275.365 95.4915 275.345 95.4193 275.346 95.346V81.63C275.348 81.5602 275.367 81.4919 275.402 81.4316C275.437 81.3712 275.487 81.3207 275.547 81.2848C275.607 81.2489 275.675 81.2287 275.744 81.2261C275.814 81.2235 275.884 81.2386 275.946 81.27L287.76 88.08C287.824 88.1161 287.877 88.1684 287.914 88.2316C287.95 88.2949 287.97 88.3668 287.97 88.44V102.156C287.969 102.229 287.95 102.301 287.913 102.364C287.876 102.427 287.823 102.479 287.76 102.516C287.698 102.552 287.628 102.57 287.556 102.57C287.483 102.57 287.41 102.551 287.346 102.516ZM276.174 82.35V95.106L287.142 101.436V88.68L276.174 82.35Z" fill="#E0E0E0"/>
<path d="M281.1 95.322L278.358 89.514L279.624 88.302L281.454 92.202L287.862 86.022L288.78 87.936L281.1 95.322Z" fill="#52BFBC"/>
<path d="M118.89 40.8L107.094 34.002C107.032 33.9661 106.98 33.9145 106.945 33.8524C106.909 33.7902 106.89 33.7197 106.89 33.648V19.932C106.891 19.8589 106.91 19.7873 106.947 19.7241C106.984 19.661 107.037 19.6085 107.1 19.572C107.163 19.5368 107.235 19.5183 107.307 19.5183C107.379 19.5183 107.451 19.5368 107.514 19.572L119.304 26.4C119.367 26.4368 119.418 26.4895 119.454 26.5527C119.49 26.6159 119.509 26.6874 119.508 26.76V40.452C119.509 40.5246 119.49 40.5961 119.454 40.6593C119.418 40.7225 119.367 40.7752 119.304 40.812C119.24 40.8492 119.168 40.8698 119.094 40.872C119.021 40.8662 118.951 40.8414 118.89 40.8ZM107.718 20.646V33.408L118.68 39.738V27L107.718 20.646Z" fill="#E0E0E0"/>
<path d="M113.01 34.398L110.268 28.59L111.534 27.378L113.364 31.278L119.772 25.098L120.69 27.012L113.01 34.398Z" fill="#52BFBC"/>
<path d="M137.178 51.366L125.4 44.556C125.336 44.5214 125.283 44.4702 125.246 44.4079C125.209 44.3456 125.19 44.2745 125.19 44.202V30.486C125.189 30.4134 125.208 30.3419 125.244 30.2787C125.28 30.2155 125.331 30.1628 125.394 30.126C125.457 30.0908 125.529 30.0723 125.601 30.0723C125.673 30.0723 125.745 30.0908 125.808 30.126L137.604 36.936C137.668 36.9716 137.722 37.0238 137.758 37.0872C137.795 37.1505 137.815 37.2227 137.814 37.296V51C137.811 51.1094 137.767 51.2137 137.69 51.2916C137.613 51.3696 137.509 51.4155 137.4 51.42C137.323 51.4217 137.246 51.4031 137.178 51.366ZM126 31.2V43.962L136.968 50.292V37.53L126 31.2Z" fill="#E0E0E0"/>
<path d="M155.448 61.92L143.658 55.116C143.594 55.0799 143.541 55.0276 143.504 54.9644C143.468 54.9011 143.448 54.8292 143.448 54.756V41.04C143.447 40.9674 143.466 40.8959 143.502 40.8327C143.538 40.7695 143.589 40.7168 143.652 40.68C143.715 40.6448 143.787 40.6263 143.859 40.6263C143.931 40.6263 144.003 40.6448 144.066 40.68L155.862 47.49C155.926 47.5256 155.979 47.5778 156.016 47.6412C156.053 47.7045 156.073 47.7767 156.072 47.85V61.566C156.072 61.6385 156.053 61.7096 156.016 61.7719C155.979 61.8342 155.926 61.8854 155.862 61.92C155.801 61.9597 155.73 61.9806 155.658 61.98C155.584 61.9808 155.511 61.9599 155.448 61.92ZM144.276 41.754V54.516L155.244 60.846V48.09L144.276 41.754Z" fill="#E0E0E0"/>
<path d="M108.738 96.834L75.6 194.97L73.23 196.338L106.374 98.202L108.738 96.834Z" fill="#455A64"/>
<path d="M73.23 196.338L72.06 195.666L105.198 97.524L106.374 98.202L73.23 196.338Z" fill="#263238"/>
<path d="M106.374 177.204L105.198 176.532L72.06 116.664L73.23 117.336L106.374 177.204Z" fill="#263238"/>
<path d="M75.6 115.968L108.738 175.836L106.374 177.204L73.23 117.336L75.6 115.968Z" fill="#455A64"/>
<path d="M117.036 139.896V142.632L152.544 122.13V119.4L117.036 139.896Z" fill="#455A64"/>
<path d="M117.036 139.896V142.632L72.06 116.664V113.928L117.036 139.896Z" fill="#37474F"/>
<path d="M152.544 122.13L119.406 220.272L117.036 221.634L150.18 123.498L152.544 122.13Z" fill="#455A64"/>
<path d="M117.036 221.634L115.866 220.962L149.004 122.82L150.18 123.498L117.036 221.634Z" fill="#263238"/>
<path d="M150.18 202.5L149.004 201.828L115.866 141.96L117.036 142.632L150.18 202.5Z" fill="#263238"/>
<path d="M119.406 141.264L152.544 201.132L150.18 202.5L117.036 142.632L119.406 141.264Z" fill="#455A64"/>
<path d="M107.568 44.226L98.088 49.698C90.1719 54.269 83.5989 60.8438 79.0299 68.761C74.461 76.6783 72.0571 85.659 72.06 94.8V113.946L74.424 115.314L109.932 94.8V45.6L107.568 44.226Z" fill="#52BFBC"/>
<path opacity="0.6" d="M107.568 44.226L98.088 49.698C90.1719 54.269 83.5989 60.8438 79.0299 68.761C74.461 76.6783 72.0571 85.659 72.06 94.8V113.946L74.424 115.314L109.932 94.8V45.6L107.568 44.226Z" fill="white"/>
<path opacity="0.6" d="M75.906 75.15L109.932 94.8V45.6L107.568 44.232L98.088 49.704C88.0719 55.4855 80.267 64.4388 75.906 75.15Z" fill="white"/>
<path d="M74.4 115.296V96.15C74.4002 87.0113 76.8063 78.0337 81.3762 70.1197C85.9462 62.2057 92.519 55.6343 100.434 51.066L109.932 45.6V94.8L74.4 115.296Z" fill="#52BFBC"/>
<path opacity="0.7" d="M74.4 115.296V96.15C74.4002 87.0113 76.8063 78.0337 81.3762 70.1197C85.9462 62.2057 92.519 55.6343 100.434 51.066L109.932 45.6V94.8L74.4 115.296Z" fill="white"/>
<path d="M114.672 135.798L74.424 112.56L109.932 92.064L150.18 115.296L114.672 135.798Z" fill="#52BFBC"/>
<path opacity="0.8" d="M114.672 135.798L74.424 112.56L109.932 92.064L150.18 115.296L114.672 135.798Z" fill="white"/>
<path d="M114.672 138.534V135.798L74.424 112.56V115.296L114.672 138.534Z" fill="#52BFBC"/>
<path opacity="0.6" d="M114.672 138.534V135.798L74.424 112.56V115.296L114.672 138.534Z" fill="white"/>
<path opacity="0.3" d="M87.78 113.682L104.352 123.252L125.658 110.952L109.086 101.382L87.78 113.682Z" fill="#52BFBC"/>
<path d="M87.78 112.71L104.352 122.274L125.658 109.974L109.086 100.41L87.78 112.71Z" fill="#FAFAFA"/>
<path d="M116.184 112.854C116.16 112.859 116.136 112.859 116.112 112.854L113.748 111.486C113.725 111.474 113.707 111.455 113.694 111.433C113.681 111.411 113.674 111.386 113.674 111.36C113.674 111.334 113.681 111.309 113.694 111.287C113.707 111.265 113.725 111.246 113.748 111.234L116.112 109.866C116.134 109.854 116.159 109.848 116.184 109.848C116.209 109.848 116.234 109.854 116.256 109.866L118.656 111.234C118.678 111.246 118.697 111.265 118.71 111.287C118.723 111.309 118.73 111.334 118.73 111.36C118.73 111.386 118.723 111.411 118.71 111.433C118.697 111.455 118.678 111.474 118.656 111.486L116.256 112.854C116.232 112.86 116.208 112.86 116.184 112.854ZM114.108 111.342L116.184 112.542L118.26 111.342L116.184 110.142L114.108 111.342Z" fill="#52BFBC"/>
<path d="M111.45 115.59H111.378L109.014 114.222C108.992 114.209 108.973 114.191 108.959 114.169C108.945 114.147 108.938 114.122 108.936 114.096C108.936 114.07 108.943 114.044 108.957 114.022C108.97 113.999 108.99 113.981 109.014 113.97L111.378 112.602C111.399 112.587 111.424 112.579 111.45 112.579C111.476 112.579 111.501 112.587 111.522 112.602L113.892 113.97C113.914 113.983 113.932 114.001 113.945 114.023C113.958 114.045 113.964 114.071 113.964 114.096C113.963 114.121 113.955 114.146 113.943 114.168C113.93 114.189 113.913 114.208 113.892 114.222L111.522 115.59C111.498 115.596 111.474 115.596 111.45 115.59ZM109.374 114.078L111.45 115.278L113.526 114.078L111.45 112.878L109.374 114.078Z" fill="#52BFBC"/>
<path d="M106.716 118.32C106.692 118.325 106.668 118.325 106.644 118.32L104.244 116.952C104.222 116.939 104.204 116.921 104.191 116.899C104.178 116.877 104.172 116.852 104.172 116.826C104.173 116.801 104.181 116.776 104.193 116.754C104.206 116.733 104.223 116.714 104.244 116.7L106.644 115.332C106.666 115.32 106.691 115.314 106.716 115.314C106.741 115.314 106.766 115.32 106.788 115.332L109.188 116.7C109.209 116.714 109.226 116.733 109.239 116.754C109.251 116.776 109.259 116.801 109.26 116.826C109.26 116.852 109.254 116.877 109.241 116.899C109.228 116.921 109.21 116.939 109.188 116.952L106.788 118.32C106.764 118.326 106.74 118.326 106.716 118.32ZM104.64 116.808L106.716 118.008L108.792 116.808L106.716 115.608L104.64 116.808Z" fill="#52BFBC"/>
<path d="M112.614 109.608C112.564 109.608 112.514 109.595 112.47 109.572L105.366 105.474C105.299 105.434 105.251 105.37 105.231 105.295C105.211 105.22 105.22 105.14 105.258 105.072C105.298 105.005 105.363 104.957 105.438 104.938C105.513 104.919 105.593 104.93 105.66 104.97L112.758 109.068C112.814 109.099 112.858 109.148 112.884 109.207C112.909 109.266 112.913 109.332 112.897 109.394C112.88 109.456 112.844 109.511 112.792 109.55C112.741 109.589 112.678 109.609 112.614 109.608Z" fill="#E0E0E0"/>
<path d="M107.898 112.32C107.847 112.317 107.798 112.303 107.754 112.278L100.656 108.18C100.595 108.138 100.553 108.076 100.536 108.004C100.52 107.932 100.53 107.857 100.567 107.793C100.603 107.729 100.662 107.681 100.731 107.658C100.801 107.635 100.877 107.64 100.944 107.67L108.048 111.774C108.081 111.793 108.11 111.819 108.132 111.849C108.155 111.879 108.172 111.914 108.181 111.951C108.191 111.988 108.193 112.026 108.188 112.064C108.182 112.101 108.169 112.137 108.15 112.17C108.126 112.216 108.089 112.254 108.045 112.28C108.001 112.307 107.95 112.321 107.898 112.32Z" fill="#E0E0E0"/>
<path d="M103.2 115.02C103.148 115.02 103.096 115.008 103.05 114.984L95.952 110.886C95.8855 110.846 95.8371 110.782 95.8169 110.707C95.7968 110.632 95.8065 110.552 95.844 110.484C95.8632 110.451 95.8887 110.423 95.919 110.4C95.9494 110.377 95.9839 110.36 96.0208 110.351C96.0576 110.341 96.0959 110.339 96.1335 110.344C96.1712 110.35 96.2073 110.363 96.24 110.382L103.344 114.48C103.41 114.519 103.458 114.582 103.479 114.656C103.499 114.73 103.489 114.809 103.452 114.876C103.427 114.92 103.39 114.957 103.345 114.982C103.301 115.007 103.251 115.02 103.2 115.02Z" fill="#E0E0E0"/>
<path d="M109.932 45.594L150.18 68.826L147.81 70.194L107.568 46.956L109.932 45.594Z" fill="#52BFBC"/>
<path opacity="0.8" d="M109.932 45.594L150.18 68.826L147.81 70.194L107.568 46.956L109.932 45.594Z" fill="white"/>
<path d="M107.568 46.956V93.432L147.81 116.664V70.194L107.568 46.956Z" fill="#52BFBC"/>
<path opacity="0.6" d="M107.568 46.956V93.432L147.81 116.664V70.194L107.568 46.956Z" fill="white"/>
<path d="M150.18 68.826L140.7 74.298C132.785 78.87 126.212 85.4449 121.644 93.362C117.075 101.279 114.67 110.259 114.672 119.4V138.546L117.036 139.908L152.544 119.4V70.2L150.18 68.826Z" fill="#52BFBC"/>
<path opacity="0.6" d="M150.18 68.826L140.7 74.298C132.785 78.87 126.212 85.4449 121.644 93.362C117.075 101.279 114.67 110.259 114.672 119.4V138.546L117.036 139.908L152.544 119.4V70.2L150.18 68.826Z" fill="white"/>
<path opacity="0.6" d="M118.518 99.75L152.544 119.4V70.2L150.18 68.832L140.7 74.304C130.685 80.0869 122.881 89.0397 118.518 99.75Z" fill="white"/>
<path d="M117.036 139.896V120.75C117.036 111.611 119.442 102.634 124.012 94.7197C128.582 86.8057 135.155 80.2343 143.07 75.666L152.544 70.2V119.4L117.036 139.896Z" fill="#52BFBC"/>
<path opacity="0.8" d="M117.036 139.896V120.75C117.036 111.611 119.442 102.634 124.012 94.7197C128.582 86.8057 135.155 80.2343 143.07 75.666L152.544 70.2V119.4L117.036 139.896Z" fill="white"/>
<path d="M132.552 100.08L131.478 102.84V104.4L131.316 104.496V102.918L130.236 101.406L130.44 101.292L131.22 102.414L131.4 102.696L131.568 102.216L132.354 100.188L132.552 100.08Z" fill="#455A64"/>
<path d="M133.944 103.038C133.146 103.494 132.744 103.038 132.744 101.838C132.701 101.334 132.789 100.827 132.999 100.366C133.209 99.906 133.535 99.5077 133.944 99.21C134.742 98.754 135.144 99.276 135.144 100.41C135.193 100.915 135.108 101.424 134.897 101.885C134.687 102.347 134.358 102.744 133.944 103.038ZM133.944 99.438C133.583 99.7042 133.296 100.059 133.112 100.467C132.927 100.876 132.85 101.325 132.888 101.772C132.888 102.684 133.188 103.284 133.944 102.84C134.303 102.583 134.589 102.237 134.774 101.836C134.959 101.436 135.037 100.994 135 100.554C135 99.648 134.712 99 133.944 99.432V99.438Z" fill="#455A64"/>
<path d="M137.832 97.038V99.054C137.832 100.206 137.484 100.992 136.74 101.424C135.996 101.856 135.642 101.472 135.642 100.32V98.298L135.798 98.208V100.248C135.798 101.166 136.062 101.616 136.74 101.226C137.069 101 137.331 100.688 137.496 100.325C137.661 99.9607 137.723 99.5587 137.676 99.162V97.128L137.832 97.038Z" fill="#455A64"/>
<path d="M140.604 99.144L140.424 99.252L140.088 98.472C139.938 98.112 139.71 98.034 139.314 98.262L138.576 98.688V100.29L138.42 100.38V96.672L139.554 96.018C140.034 95.742 140.4 95.862 140.4 96.57C140.401 96.8247 140.348 97.0767 140.245 97.3094C140.141 97.5421 139.99 97.7502 139.8 97.92C140.016 97.92 140.154 98.07 140.244 98.274L140.604 99.144ZM139.566 96.228L138.57 96.828V98.466V98.502L139.53 97.95C139.748 97.8198 139.929 97.6354 140.056 97.4146C140.182 97.1939 140.249 96.9443 140.25 96.69C140.25 96.078 139.95 96 139.566 96.228Z" fill="#455A64"/>
<path d="M125.454 118.524L123.216 111.468L124.926 110.484L125.892 113.886C126.276 115.224 126.432 115.782 126.438 115.812H126.468C126.468 115.77 126.624 115.038 127.002 113.298L127.98 108.738L129.606 107.796L127.368 117.438L125.454 118.524Z" fill="#52BFBC"/>
<path d="M132.984 105.66C134.904 104.556 136.29 105.546 136.29 108.096C136.29 110.646 134.904 113.238 132.984 114.342C131.064 115.446 129.684 114.462 129.684 111.942C129.684 109.422 131.07 106.8 132.984 105.66ZM132.984 112.446C133.552 112.065 134.014 111.547 134.329 110.94C134.644 110.332 134.8 109.656 134.784 108.972C134.784 107.466 134.028 106.95 132.984 107.544C132.414 107.928 131.951 108.449 131.636 109.059C131.321 109.67 131.166 110.349 131.184 111.036C131.196 112.524 131.946 113.046 132.984 112.446Z" fill="#52BFBC"/>
<path d="M140.016 103.632V110.118L138.516 110.988V104.496L136.596 105.606V103.746L141.93 100.662V102.528L140.016 103.632Z" fill="#52BFBC"/>
<path d="M142.71 100.2L147.27 97.566V99.426L144.21 101.19V102.624L146.466 101.322V102.99L144.21 104.292V105.816L147.318 104.016V105.882L142.71 108.54V100.2Z" fill="#52BFBC"/>
<path d="M129.558 122.49L129.408 122.574V119.334L129.216 120.078L128.298 123.264L127.374 121.128L127.182 120.618V123.87L127.026 123.954V120.246L127.17 120.168L128.16 122.454L128.304 122.82L128.442 122.292L129.438 118.86L129.576 118.776L129.558 122.49Z" fill="#455A64"/>
<path d="M132.444 120.822L132.27 120.924L131.952 120.126L130.392 121.026L130.08 122.184L129.906 122.286L131.106 117.888L131.244 117.804L132.444 120.822ZM131.898 119.946L131.298 118.38L131.226 118.098L131.142 118.464L130.542 120.744V120.78L131.898 119.946Z" fill="#455A64"/>
<path d="M134.4 116.178L133.392 116.778V120.264L133.236 120.354V116.862L132.228 117.462V117.27L134.4 115.98V116.178Z" fill="#455A64"/>
<path d="M136.692 114.858L135.684 115.458V118.944L135.528 119.034V115.518L134.526 116.118V115.92L136.674 114.678L136.692 114.858Z" fill="#455A64"/>
<path d="M138.942 117.072L137.07 118.152V114.444L138.942 113.364V113.562L137.208 114.558V116.07V116.1L138.774 115.194V115.392L137.208 116.298V117.816V117.846L138.942 116.844V117.072Z" fill="#455A64"/>
<path d="M141.66 115.5L141.48 115.608L141.144 114.828C140.994 114.468 140.766 114.39 140.37 114.618L139.632 115.044V116.646L139.476 116.736V113.028L140.61 112.374C141.09 112.098 141.456 112.218 141.456 112.926C141.457 113.181 141.404 113.433 141.301 113.665C141.197 113.898 141.046 114.106 140.856 114.276C141.072 114.276 141.216 114.426 141.3 114.63L141.66 115.5ZM140.622 112.59L139.626 113.16V114.798V114.834L140.586 114.282C140.804 114.152 140.985 113.967 141.112 113.747C141.238 113.526 141.305 113.276 141.306 113.022C141.306 112.434 141 112.368 140.622 112.59Z" fill="#455A64"/>
<path d="M142.914 114.822C142.763 114.936 142.583 115.004 142.395 115.019C142.207 115.034 142.019 114.995 141.852 114.906L141.978 114.666C142.12 114.752 142.283 114.794 142.448 114.787C142.614 114.781 142.773 114.726 142.908 114.63C143.151 114.511 143.359 114.332 143.511 114.109C143.664 113.886 143.756 113.627 143.778 113.358C143.778 113.022 143.586 112.848 143.178 112.932L142.668 113.034C142.164 113.124 141.894 113.034 141.894 112.554C141.918 112.235 142.024 111.928 142.202 111.662C142.38 111.396 142.623 111.181 142.908 111.036C143.039 110.935 143.198 110.875 143.364 110.864C143.53 110.853 143.695 110.892 143.838 110.976L143.718 111.21C143.6 111.128 143.46 111.084 143.316 111.084C143.172 111.084 143.032 111.128 142.914 111.21C142.681 111.322 142.481 111.49 142.331 111.7C142.181 111.91 142.086 112.154 142.056 112.41C142.056 112.806 142.332 112.824 142.77 112.74L143.238 112.65C143.766 112.554 143.958 112.794 143.958 113.208C143.947 113.547 143.845 113.876 143.661 114.16C143.477 114.445 143.218 114.674 142.914 114.822Z" fill="#455A64"/>
<path d="M144.03 93.324L144.48 94.278L145.488 93.894L144.756 95.256L144.93 96.492L144.03 96.384L143.13 97.53L143.304 96.096L142.578 95.574L143.58 94.8L144.03 93.324Z" fill="#52BFBC"/>
<path d="M126.72 103.32L126.27 104.796L125.262 105.57L125.988 106.092L125.82 107.526L126.72 106.38L127.614 106.488L127.446 105.252L128.172 103.89L127.17 104.274L126.72 103.32Z" fill="#52BFBC"/>
<path d="M201.252 204.774L178.218 274.89L175.95 276.204L198.984 206.082L201.252 204.774Z" fill="#455A64"/>
<path d="M175.95 276.204L174.828 275.556L197.856 205.44L198.984 206.082L175.95 276.204Z" fill="#263238"/>
<path d="M207.732 257.85L206.61 257.208L183.912 213.96L185.04 214.608L207.732 257.85Z" fill="#263238"/>
<path d="M187.308 213.294L210.006 256.542L207.738 257.85L185.04 214.602L187.308 213.294Z" fill="#455A64"/>
<path d="M169.476 186.426L146.442 256.542L144.174 257.85L167.208 187.734L169.476 186.426Z" fill="#455A64"/>
<path d="M144.174 257.85L143.052 257.208L166.086 187.086L167.208 187.734L144.174 257.85Z" fill="#263238"/>
<path d="M175.956 239.502L174.834 238.854L152.136 195.606L153.264 196.254L175.956 239.502Z" fill="#263238"/>
<path d="M155.532 194.94L178.23 238.188L175.956 239.502L153.264 196.254L155.532 194.94Z" fill="#455A64"/>
<path d="M173.688 222.468L137.364 201.498L175.956 179.214L212.286 200.184L173.688 222.468Z" fill="#455A64"/>
<path d="M173.688 225.09V222.468L212.286 200.184V202.806L173.688 225.09Z" fill="#37474F"/>
<path d="M173.688 225.09V222.468L137.364 201.498L137.376 204.108L173.688 225.09Z" fill="#263238"/>
<path d="M173.706 219.846V188.394L142.77 170.592V202.044L173.706 219.846Z" fill="#52BFBC"/>
<path d="M173.706 188.394L206.886 169.224V200.682L173.706 219.846V188.394Z" fill="#52BFBC"/>
<path opacity="0.15" d="M173.706 188.394L206.886 169.224V200.682L173.706 219.846V188.394Z" fill="white"/>
<path d="M173.706 188.394L141.9 170.088L175.95 150.414L207.75 168.72L173.706 188.394Z" fill="#52BFBC"/>
<path opacity="0.3" d="M173.706 188.394L141.9 170.088L175.95 150.414L207.75 168.72L173.706 188.394Z" fill="white"/>
<path d="M173.706 188.394V194.01L141.9 175.71V170.088L173.706 188.394Z" fill="#52BFBC"/>
<path d="M207.75 168.72L173.706 188.394V194.01L207.75 174.342V168.72Z" fill="#52BFBC"/>
<path opacity="0.15" d="M207.75 168.72L173.706 188.394V194.01L207.75 174.342V168.72Z" fill="white"/>
<path opacity="0.1" d="M142.8 176.208V177.444L173.736 195.246V194.01L142.8 176.208ZM206.916 174.84L173.736 194.04V195.276L206.916 176.076V174.84Z" fill="black"/>
<path d="M164.604 172.662L169.146 175.284L185.04 166.104L180.498 163.488L164.604 172.662Z" fill="#52BFBC"/>
<path opacity="0.2" d="M183.906 166.764L185.04 166.104L180.498 163.488L180.504 164.808L183.906 166.764Z" fill="black"/>
<path opacity="0.1" d="M165.744 173.316L180.498 164.796V163.488L164.604 172.662L165.744 173.316Z" fill="black"/>
<path d="M180.78 206.598L178.638 199.83L180.276 198.888L181.2 202.146C181.572 203.43 181.716 203.946 181.722 203.994H181.752C181.752 203.952 181.902 203.25 182.262 201.594L183.198 197.22L184.758 196.32L182.616 205.566L180.78 206.598Z" fill="#FAFAFA"/>
<path d="M188.004 194.262C189.84 193.206 191.166 194.154 191.166 196.602C191.166 199.05 189.84 201.528 188.004 202.602C186.168 203.676 184.836 202.71 184.836 200.268C184.836 197.826 186.168 195.324 188.004 194.262ZM188.004 200.772C188.547 200.405 188.989 199.907 189.289 199.324C189.589 198.741 189.737 198.091 189.72 197.436C189.72 195.996 189 195.498 188.004 196.068C187.46 196.437 187.017 196.937 186.717 197.522C186.417 198.107 186.27 198.759 186.288 199.416C186.288 200.844 187.008 201.348 188.004 200.772Z" fill="#FAFAFA"/>
<path d="M194.748 192.312V198.534L193.302 199.368V193.146L191.472 194.208V192.408L196.578 189.456V191.256L194.748 192.312Z" fill="#FAFAFA"/>
<path d="M197.328 189.042L201.702 186.516V188.316L198.768 190.008V191.382L200.928 190.134V191.736L198.768 192.984V194.448L201.768 192.726V194.526L197.352 197.076L197.328 189.042Z" fill="#FAFAFA"/>
<path d="M184.518 164.232L183.09 167.208L169.146 175.284L166.236 173.604L174.048 157.11L184.518 164.232Z" fill="#FAFAFA"/>
<path d="M256.2 212.046C256.476 213.402 256.986 214.968 257.4 217.734C257.814 220.5 257.172 220.614 259.164 227.55C260.364 231.708 260.142 233.364 257.364 236.874C254.364 240.636 251.25 239.874 249.21 235.71C247.47 232.152 247.572 230.496 247.566 226.806C247.56 223.116 247.524 222.042 247.338 219.114C247.176 216.534 247.41 214.77 247.236 212.796L256.2 212.046Z" fill="#37474F"/>
<path d="M257.124 222.156C256.566 218.556 256.434 214.878 256.23 212.46C255.774 207.06 256.98 196.35 256.134 188.208L241.068 186.834C241.572 190.008 245.736 204.36 247.248 213.024C247.248 213.024 247.848 224.784 248.67 229.962C248.706 230.122 248.776 230.272 248.877 230.401C248.978 230.531 249.106 230.636 249.253 230.71C249.399 230.783 249.56 230.823 249.724 230.827C249.888 230.83 250.05 230.797 250.2 230.73C252.37 229.861 254.763 229.715 257.022 230.316C257.18 230.376 257.35 230.397 257.518 230.379C257.686 230.361 257.847 230.303 257.989 230.211C258.13 230.118 258.248 229.994 258.332 229.847C258.416 229.701 258.465 229.537 258.474 229.368C258.444 227.454 257.544 224.838 257.124 222.156Z" fill="#B16668"/>
<path d="M213.9 183.924C214.458 195.024 214.572 203.49 214.452 208.272C214.457 210.637 214.011 212.98 213.138 215.178C212.34 217.206 210.954 220.134 209.802 221.424C209.802 221.424 206.088 225.402 206.802 225.774C207.516 226.146 215.172 226.62 218.202 225.774C221.232 224.928 222.402 222.378 223.554 217.728C224.706 213.078 225.738 206.268 225.738 206.268C225.604 206.017 225.505 205.748 225.444 205.47C225.078 204.108 226.53 197.292 226.926 193.902L213.9 183.924Z" fill="#B16668"/>
<path d="M228.462 213.12C228.342 214.272 227.472 215.634 227.178 217.434C226.833 219.485 226.692 221.565 226.758 223.644C226.824 226.188 226.83 226.548 226.83 226.548H226.044C226.044 226.548 225.948 222.876 225.912 221.262C225.876 219.648 225.096 218.232 224.322 218.076C224.322 218.094 224.646 213.216 228.462 213.12Z" fill="#263238"/>
<path d="M225.636 205.638C226.092 206.94 227.268 208.638 227.946 209.898C228.347 210.622 228.594 211.42 228.672 212.244C228.665 212.682 228.569 213.115 228.388 213.514C228.208 213.914 227.947 214.272 227.622 214.566C226.992 215.166 226.536 215.664 225.78 216.366C224.202 217.818 223.542 219.096 222.492 222.462C221.892 224.466 220.866 226.284 219.09 227.262C217.704 228.018 213.9 229.302 209.226 229.104C205.344 228.942 203.826 227.25 205.332 225.792C206.838 224.334 209.352 221.748 209.802 221.442C211.213 221.447 212.61 221.722 213.918 222.252C216.066 223.236 216.726 224.514 219.03 223.452C221.118 222.468 222.222 218.874 222.402 213.156C222.6 206.886 225.636 205.638 225.636 205.638Z" fill="#37474F"/>
<path d="M245.688 108.504C245.958 109.92 246.258 111.24 246.774 111.942C249.918 116.238 253.128 121.434 253.752 129.474C255.264 148.872 255.33 167.604 255.33 167.604C255.486 169.314 257.538 173.004 257.28 183.342C257.082 191.142 256.512 203.064 256.512 203.064C256.512 203.064 249.66 205.848 244.788 204.042C242.778 196.626 239.562 178.98 237.588 170.484C235.494 161.538 234.054 150.738 234.054 150.738L229.752 167.538C230.414 171.439 230.584 175.408 230.256 179.352C229.704 184.566 226.356 200.19 226.356 200.19C226.356 200.19 218.22 201.936 214.014 199.068C214.014 199.068 212.994 173.106 212.916 167.376C212.838 161.646 211.944 130.068 215.358 115.062C215.514 114.366 215.988 109.62 215.988 109.62C220.098 112.962 240.252 112.23 245.688 108.504Z" fill="#37474F"/>
<path d="M256.644 200.19C254.538 202.152 246.606 202.782 244.044 201.45L245.07 205.65C247.033 206.43 249.158 206.71 251.256 206.466C254.982 206.1 256.518 204.438 256.518 204.438L256.644 200.19Z" fill="#455A64"/>
<path d="M226.932 197.598C224.736 198.354 216.228 197.838 213.804 196.398L213.954 199.878C216.188 200.836 218.552 201.459 220.968 201.726C224.676 202.074 226.26 201.018 226.26 201.018L226.932 197.598Z" fill="#455A64"/>
<path d="M234.036 150.738L231.378 131.568C229.512 131.612 227.66 131.224 225.968 130.435C224.276 129.646 222.789 128.478 221.622 127.02C221.622 127.02 221.526 131.82 229.422 133.926L232.542 151.59L229.716 167.526L234.036 150.738Z" fill="#263238"/>
<path d="M198.09 95.88C195.864 94.206 194.172 92.958 191.598 88.848C190.881 87.8752 190.042 86.9981 189.102 86.238C188.208 85.3878 187.474 84.3838 186.936 83.274C186.702 82.716 185.28 83.316 185.556 85.248C185.766 86.682 186.636 87.99 186.984 88.806C186.228 88.806 185.016 88.704 183.384 88.806C181.752 88.908 178.482 88.734 179.082 90.606C179.214 91.026 179.556 91.38 179.568 91.806C179.554 92.0089 179.52 92.2098 179.466 92.406C179.394 92.798 179.428 93.2023 179.567 93.5761C179.705 93.9499 179.942 94.2795 180.252 94.53C180.407 94.6228 180.54 94.7476 180.642 94.896C180.81 95.22 180.684 95.616 180.756 95.958C180.848 96.3492 181.045 96.708 181.326 96.996C181.728 97.428 181.86 97.278 182.262 97.71C182.526 97.992 182.58 98.616 183.198 99.03C183.66 99.336 184.77 99.372 185.952 99.354C187.134 99.336 187.806 99.726 189.378 99.678C190.614 99.642 191.778 100.338 193.836 102.45C198.444 106.842 199.032 108.276 203.166 111.63C203.531 111.932 203.911 112.214 204.306 112.476C208.218 115.17 209.766 113.076 212.856 107.634C216.654 100.944 218.622 97.152 218.622 97.152L224.718 78.978C220.962 79.404 216.546 83.652 213.21 88.47C211.644 90.732 205.158 100.692 205.158 100.692C202.95 99.318 200.322 97.554 198.09 95.88Z" fill="#B16668"/>
<path d="M184.968 89.916C185.133 89.9617 185.294 90.022 185.448 90.096C185.608 90.1736 185.754 90.277 185.88 90.402H185.832C186.583 90.2567 187.362 90.3776 188.034 90.744C188.202 90.8468 188.352 90.9766 188.478 91.128C188.62 91.2949 188.692 91.5094 188.682 91.728C188.676 91.8437 188.638 91.9556 188.574 92.052C188.492 92.1415 188.386 92.2042 188.268 92.232C188.076 92.274 187.902 92.298 187.722 92.334C187.368 92.406 187.02 92.526 186.654 92.61C186.284 92.6945 185.904 92.7228 185.526 92.694C184.785 92.6397 184.053 92.4925 183.348 92.256C183.707 92.3392 184.072 92.3954 184.44 92.424C184.806 92.466 185.166 92.508 185.532 92.514C185.891 92.5186 186.25 92.4803 186.6 92.4C186.954 92.316 187.302 92.19 187.668 92.106C187.854 92.064 188.046 92.034 188.208 91.992C188.37 91.95 188.418 91.89 188.442 91.71C188.472 91.41 188.202 91.11 187.914 90.942C187.287 90.5839 186.562 90.4346 185.844 90.516H185.814C185.708 90.3904 185.58 90.2847 185.436 90.204C185.289 90.0948 185.132 89.9984 184.968 89.916Z" fill="#9A4A4D"/>
<path d="M187.536 92.232C187.693 92.1797 187.863 92.1802 188.02 92.2332C188.177 92.2863 188.313 92.3891 188.406 92.526C188.497 92.6744 188.542 92.8464 188.536 93.0205C188.53 93.1945 188.472 93.3627 188.37 93.504C188.057 94.0894 187.568 94.5616 186.972 94.854C186.654 94.9522 186.32 94.9928 185.988 94.974C185.668 94.974 185.35 94.962 185.034 94.938C184.398 94.896 183.768 94.854 183.132 94.782C183.768 94.752 184.404 94.746 185.04 94.74C185.658 94.7922 186.281 94.7518 186.888 94.62C187.164 94.4974 187.416 94.3267 187.632 94.116C187.854 93.8997 188.055 93.6626 188.232 93.408C188.326 93.2949 188.384 93.1567 188.4 93.0105C188.416 92.8644 188.389 92.7168 188.322 92.586C188.247 92.4494 188.13 92.3409 187.988 92.277C187.847 92.2131 187.688 92.1973 187.536 92.232Z" fill="#9A4A4D"/>
<path d="M187.26 94.56C187.397 94.499 187.545 94.4674 187.695 94.4674C187.845 94.4674 187.993 94.499 188.13 94.56C188.202 94.5973 188.265 94.6499 188.315 94.7142C188.365 94.7784 188.4 94.8528 188.418 94.932C188.445 95.0868 188.445 95.2452 188.418 95.4C188.314 95.6873 188.138 95.9433 187.908 96.144C187.71 96.3802 187.459 96.5671 187.176 96.69C186.882 96.7466 186.581 96.7628 186.282 96.738C186.001 96.7555 185.72 96.7876 185.442 96.834C184.878 96.924 184.308 97.02 183.738 97.098C184.29 96.918 184.842 96.774 185.406 96.648C185.692 96.5773 185.983 96.5311 186.276 96.51C186.551 96.5252 186.828 96.505 187.098 96.45C187.346 96.3463 187.567 96.1884 187.746 95.988C187.951 95.813 188.117 95.5962 188.232 95.352C188.256 95.2231 188.256 95.0909 188.232 94.962C188.224 94.9002 188.202 94.841 188.168 94.789C188.133 94.737 188.088 94.6936 188.034 94.662C187.799 94.5298 187.521 94.4933 187.26 94.56Z" fill="#9A4A4D"/>
<path d="M187.38 96.444C187.439 96.4665 187.493 96.5011 187.539 96.5455C187.584 96.5899 187.62 96.6432 187.644 96.702C187.691 96.8242 187.705 96.9565 187.686 97.086C187.633 97.3234 187.55 97.5532 187.44 97.77C187.38 97.8775 187.314 97.9816 187.242 98.082C187.168 98.1873 187.071 98.2753 186.96 98.34C186.76 98.4682 186.544 98.571 186.318 98.646L186.846 98.184C186.927 98.1165 186.998 98.0377 187.056 97.95C187.116 97.8553 187.17 97.7571 187.218 97.656C187.327 97.4641 187.419 97.2634 187.494 97.056C187.54 96.9545 187.553 96.8415 187.533 96.7322C187.512 96.6228 187.459 96.5222 187.38 96.444Z" fill="#9A4A4D"/>
<path d="M188.562 91.698C188.466 92.7484 188.785 93.7946 189.451 94.6122C190.118 95.4299 191.078 95.954 192.126 96.072C191.357 96.0961 190.594 95.9291 189.906 95.586C189.336 95.3202 188.836 94.9234 188.448 94.428L188.334 94.908C188.184 94.656 188.112 94.44 187.428 94.506C187.735 94.221 188.005 93.8984 188.232 93.546C188.436 93.15 188.73 92.526 187.89 92.154C188.065 92.1325 188.236 92.0881 188.4 92.022C188.463 91.9988 188.515 91.9524 188.545 91.8922C188.575 91.8319 188.581 91.7625 188.562 91.698Z" fill="#9A4A4D"/>
<path d="M225.228 78.456C219.912 79.428 218.028 79.47 212.544 88.35C209.166 93.804 205.062 100.458 205.062 100.458L201.126 98.058C201.858 98.796 203.292 102.594 202.326 104.934C201.705 106.368 200.604 107.542 199.212 108.252C200.56 109.658 202.001 110.971 203.526 112.182C205.662 113.808 206.796 114.054 208.092 113.67C209.388 113.286 210.654 111.87 213.798 108.144C217.032 104.31 220.818 98.664 220.818 98.664L225.228 78.456Z" fill="#52BFBC"/>
<path opacity="0.55" d="M225.228 78.456C219.912 79.428 218.028 79.47 212.544 88.35C209.166 93.804 205.062 100.458 205.062 100.458L201.126 98.058C201.858 98.796 203.292 102.594 202.326 104.934C201.705 106.368 200.604 107.542 199.212 108.252C200.56 109.658 202.001 110.971 203.526 112.182C205.662 113.808 206.796 114.054 208.092 113.67C209.388 113.286 210.654 111.87 213.798 108.144C217.032 104.31 220.818 98.664 220.818 98.664L225.228 78.456Z" fill="white"/>
<path opacity="0.35" d="M205.062 100.458C207.156 101.736 209.166 104.448 209.52 106.05C209.513 104.703 209.164 103.38 208.506 102.204C207.848 101.029 206.903 100.04 205.758 99.33L205.062 100.458Z" fill="#52BFBC"/>
<path opacity="0.35" d="M201.168 110.088C201.52 109.902 201.851 109.681 202.158 109.428C202.785 108.93 203.314 108.32 203.718 107.628C204.475 106.279 204.766 104.719 204.546 103.188C204.546 103.11 204.618 103.11 204.636 103.188C205.035 104.819 204.781 106.542 203.928 107.988C203.493 108.71 202.93 109.347 202.266 109.866C201.996 110.074 201.711 110.262 201.414 110.43L201.12 110.166L201.168 110.088Z" fill="#52BFBC"/>
<path d="M236.886 76.29L245.382 78.93C246.84 79.428 252.354 82.794 250.428 91.086C249.792 93.834 248.922 97.686 248.136 101.532C247.536 104.472 249.738 110.13 251.514 119.142C251.514 119.142 244.23 124.938 229.752 123.306C218.706 122.058 214.554 117.306 214.554 117.306C214.446 108.708 216.27 103.266 217.086 99.99C217.086 99.99 215.85 98.448 215.778 94.95C215.712 91.284 217.914 88.074 221.178 83.922C222.934 81.6492 224.947 79.5875 227.178 77.778L236.886 76.29Z" fill="#FAFAFA"/>
<path d="M217.95 65.934C217.584 64.734 216.204 64.602 215.91 62.934C215.616 61.266 216.51 60.186 217.842 59.454C219.174 58.722 219.456 57.396 219.186 54.654C218.916 51.912 220.872 50.262 223.134 49.926C224.25 49.764 225.534 49.878 226.332 49.062C226.638 48.6715 226.89 48.2416 227.082 47.784C228.162 45.792 230.166 44.922 232.848 44.94C234.052 44.9251 235.247 45.1494 236.364 45.6C237.648 46.0897 238.806 46.8605 239.754 47.856C241.224 47.622 243.99 47.94 245.49 49.26C246.144 49.7245 246.698 50.3153 247.119 50.9975C247.541 51.6797 247.821 52.4395 247.944 53.232C248.196 54.858 248.046 55.782 248.748 56.664C250.176 58.464 251.958 58.464 252.768 59.976C253.92 62.136 251.082 63.99 252.528 66.576C252.829 67.0824 253.011 67.65 253.063 68.2367C253.114 68.8233 253.033 69.414 252.824 69.9649C252.616 70.5159 252.287 71.0129 251.861 71.4192C251.435 71.8255 250.922 72.1306 250.362 72.312C249.102 72.792 248.022 72.144 246.222 72.816C244.422 73.488 244.35 74.862 242.058 75.816C240.186 76.566 238.584 75.216 237.066 75.018C234.99 74.778 235.656 75.462 233.61 74.148C232.908 73.698 232.488 72.894 231.78 72.45C229.536 71.106 228.78 71.85 226.08 72.81C225.372 73.068 223.02 73.722 221.418 71.946C220.46 70.7821 219.965 69.3061 220.026 67.8C219.57 69.3 216.126 69.27 215.778 66.888C215.932 67.13 216.167 67.309 216.441 67.3925C216.716 67.476 217.011 67.4585 217.273 67.3432C217.536 67.2279 217.748 67.0224 217.873 66.7639C217.997 66.5054 218.024 66.211 217.95 65.934Z" fill="#263238"/>
<path d="M240.132 74.46C240.132 73.092 240.408 69.612 240.408 69.612C240.912 70.896 243.24 70.944 244.38 69.36C245.82 67.356 245.814 64.974 244.836 63.522C243.75 61.914 241.17 61.872 240.036 64.362C238.332 64.68 237.69 62.07 239.088 59.676C239.118 53.958 231.348 55.884 229.782 50.748C228.439 50.9952 227.17 51.5473 226.074 52.3617C224.977 53.1762 224.083 54.2314 223.458 55.446C222.858 56.718 222.756 57.498 222.9 60.072C222.954 61.074 222.264 62.238 222.066 63.564C221.148 69.642 222.936 72.066 224.928 73.248C225.99 73.848 227.37 74.286 229.908 74.448C229.908 74.448 229.86 75.588 229.812 76.344C229.764 77.1 229.68 77.43 228.768 77.544C228.456 77.586 228.108 77.61 228.108 77.61C228.108 77.61 223.908 81.486 229.44 82.5C237.696 84.012 240.996 78.978 241.362 77.7C240.09 77.436 240.072 76.752 240.132 74.46Z" fill="#B16668"/>
<path d="M232.368 67.8L229.32 68.616C229.361 68.8225 229.443 69.0185 229.562 69.1921C229.681 69.3657 229.835 69.5131 230.013 69.6254C230.191 69.7377 230.39 69.8126 230.598 69.8453C230.806 69.8781 231.018 69.8681 231.222 69.816C231.64 69.6983 231.994 69.4206 232.209 69.0433C232.423 68.6659 232.48 68.2192 232.368 67.8Z" fill="#9A4A4D"/>
<path d="M232.146 68.472C231.746 68.4421 231.348 68.552 231.019 68.7829C230.691 69.0137 230.453 69.3513 230.346 69.738C230.631 69.8286 230.937 69.8286 231.222 69.738C231.512 69.6554 231.773 69.4939 231.977 69.2714C232.18 69.0489 232.318 68.7742 232.374 68.478C232.296 68.496 232.2 68.478 232.146 68.472Z" fill="#F28F8F"/>
<path d="M224.43 58.59L226.668 57.66C226.613 57.513 226.529 57.3787 226.421 57.2651C226.313 57.1516 226.183 57.0612 226.038 56.9995C225.894 56.9378 225.739 56.906 225.582 56.9061C225.425 56.9062 225.27 56.9381 225.126 57C224.83 57.1276 224.594 57.3627 224.465 57.6579C224.335 57.953 224.323 58.2861 224.43 58.59Z" fill="#263238"/>
<path d="M235.32 59.334L233.148 58.2C233.219 58.0572 233.317 57.93 233.437 57.8256C233.558 57.7212 233.698 57.6419 233.849 57.5922C234 57.5425 234.16 57.5234 234.319 57.5361C234.478 57.5488 234.632 57.5929 234.774 57.666C235.058 57.8249 235.271 58.0846 235.372 58.3935C235.473 58.7025 235.455 59.0382 235.32 59.334Z" fill="#263238"/>
<path d="M229.896 74.436C233.754 74.232 238.098 72.87 239.496 70.776C239.496 70.776 238.932 72.906 237.366 73.806C235.066 75.0651 232.482 75.7137 229.86 75.69L229.896 74.436Z" fill="#9A4A4D"/>
<path d="M234.036 61.938C234.037 62.1412 233.978 62.3401 233.866 62.5096C233.754 62.6792 233.594 62.8116 233.407 62.8902C233.219 62.9687 233.013 62.9899 232.813 62.951C232.614 62.9121 232.431 62.8149 232.287 62.6716C232.143 62.5284 232.044 62.3456 232.004 62.1464C231.964 61.9472 231.984 61.7406 232.061 61.5528C232.139 61.3649 232.27 61.2043 232.439 61.0913C232.608 60.9783 232.807 60.918 233.01 60.918C233.281 60.918 233.541 61.0253 233.733 61.2164C233.926 61.4075 234.034 61.6669 234.036 61.938Z" fill="#263238"/>
<path d="M226.668 61.464C226.668 61.6672 226.608 61.8658 226.495 62.0346C226.382 62.2035 226.221 62.335 226.033 62.4125C225.845 62.4899 225.639 62.5099 225.44 62.4698C225.24 62.4297 225.058 62.3314 224.914 62.1873C224.771 62.0433 224.674 61.8599 224.635 61.6605C224.596 61.461 224.617 61.2546 224.696 61.0672C224.774 60.8798 224.907 60.72 225.076 60.608C225.246 60.496 225.445 60.4368 225.648 60.438C225.782 60.438 225.916 60.4646 226.04 60.5162C226.164 60.5678 226.277 60.6435 226.371 60.7389C226.466 60.8342 226.541 60.9474 226.592 61.0718C226.643 61.1963 226.669 61.3296 226.668 61.464Z" fill="#263238"/>
<path d="M225.474 65.472L228.774 66.87L229.644 60.288L225.474 65.472Z" fill="#9A4A4D"/>
<path d="M243.048 68.754C243.04 68.8643 243.01 68.9719 242.96 69.0707C242.91 69.1694 242.841 69.2574 242.757 69.3295C242.674 69.4017 242.576 69.4566 242.471 69.4912C242.366 69.5257 242.255 69.5393 242.145 69.531C242.035 69.5227 241.927 69.4928 241.828 69.4429C241.73 69.3931 241.642 69.3243 241.569 69.2404C241.497 69.1566 241.442 69.0593 241.408 68.9542C241.373 68.8492 241.36 68.7383 241.368 68.628C241.385 68.4052 241.489 68.1982 241.659 68.0525C241.828 67.9068 242.048 67.8343 242.271 67.851C242.494 67.8677 242.701 67.9722 242.846 68.1416C242.992 68.3109 243.065 68.5312 243.048 68.754Z" fill="#EBEBEB"/>
<path d="M229.734 76.86C229.338 77.004 226.686 77.844 225.228 78.456C221.755 81.2613 218.851 84.7052 216.672 88.602C215.148 91.5 214.356 94.002 214.272 98.73C214.206 102.84 213.708 115.05 212.892 121.842C213.336 123.432 217.776 125.322 217.776 125.322C218.004 119.214 218.112 100.074 219.432 93.582C220.998 85.878 227.898 78.84 229.506 77.736L229.734 76.86Z" fill="#52BFBC"/>
<path d="M240.138 76.386V77.646C236.322 87.57 237.072 92.118 237.558 98.646C238.716 114.246 240.558 127.722 240.558 127.722C240.558 127.722 251.454 127.836 255.336 122.586C255.336 122.586 251.844 114.702 250.536 106.74C249.762 102.018 251.964 92.34 251.136 85.506C250.8 82.65 249.72 79.8 247.578 79.128C245.808 78.57 244.272 78.12 244.272 78.12L240.138 76.386Z" fill="#52BFBC"/>
<path d="M253.686 130.998C255.414 131.49 257.616 129.342 258.222 128.598C258.828 127.854 258.048 126.078 257.682 124.584C257.316 123.09 257.682 120.564 255.834 121.272C253.986 121.98 250.092 126.972 253.686 130.998Z" fill="#9A4A4D"/>
<path d="M247.926 79.506C253.518 80.67 254.064 80.502 256.704 85.812C259.782 91.992 264.138 102.084 265.236 104.412C266.334 106.74 267.396 108.486 264.438 112.116C261.804 115.35 254.022 124.662 252.864 125.994C251.844 127.194 252.99 130.65 256.5 130.146C256.5 130.146 253.83 132.51 252.36 132.246C251.094 132.024 247.896 130.074 246.066 126.246C244.914 123.846 245.88 121.92 247.632 119.22C249.726 115.998 254.91 107.376 254.91 107.376L247.2 91.974C247.2 91.974 243.84 83.766 247.926 79.506Z" fill="#B16668"/>
<path d="M247.59 79.128C246.234 80.478 244.08 85.542 247.08 92.862L254.634 107.4L251.268 112.8C251.268 112.8 253.668 115.926 255.69 117.354C256.24 117.768 256.87 118.063 257.541 118.219C258.212 118.375 258.908 118.389 259.584 118.26C259.584 118.26 263.91 113.46 265.44 111.354C266.97 109.248 267.24 108.642 265.29 103.914C263.406 99.354 257.418 85.47 256.134 83.346C254.85 81.222 253.2 79.8 247.59 79.128Z" fill="#52BFBC"/>
<path opacity="0.55" d="M247.59 79.128C246.234 80.478 244.08 85.542 247.08 92.862L254.634 107.4L251.268 112.8C251.268 112.8 253.668 115.926 255.69 117.354C256.24 117.768 256.87 118.063 257.541 118.219C258.212 118.375 258.908 118.389 259.584 118.26C259.584 118.26 263.91 113.46 265.44 111.354C266.97 109.248 267.24 108.642 265.29 103.914C263.406 99.354 257.418 85.47 256.134 83.346C254.85 81.222 253.2 79.8 247.59 79.128Z" fill="white"/>
<path opacity="0.35" d="M256.2 113.298C255.634 112.864 255.102 112.386 254.61 111.87C254.126 111.37 253.682 110.833 253.284 110.262C253.218 110.166 253.14 110.028 253.08 109.926L252.822 110.334C252.869 110.4 252.913 110.468 252.954 110.538C253.355 111.105 253.797 111.642 254.274 112.146C254.761 112.66 255.289 113.133 255.852 113.562C256.439 114.051 257.091 114.455 257.79 114.762C257.982 114.834 257.994 114.57 257.874 114.48C257.298 114.06 256.716 113.712 256.2 113.298Z" fill="#52BFBC"/>
<path d="M96.75 230.49C97.218 230.448 97.23 231.588 96.936 232.134C96.108 233.706 93.792 235.398 90.402 236.148C87.012 236.898 80.382 236.004 78.402 235.926C76.422 235.848 72.924 236.874 70.92 237.192C67.272 237.792 64.776 236.772 63.582 235.602C63.3857 235.364 63.2403 235.089 63.1546 234.793C63.069 234.496 63.0449 234.186 63.084 233.88C63.12 232.494 63.24 232.212 63.396 232.224L96.75 230.49Z" fill="#37474F"/>
<path d="M63.762 228.18C63.4119 229.821 63.3027 231.505 63.438 233.178C63.864 234.21 64.992 234.798 65.892 235.08C68.292 235.83 70.62 235.68 73.242 235.128C74.9309 234.695 76.6708 234.493 78.414 234.528C80.49 234.642 85.068 235.128 87.15 235.128C89.093 235.157 91.0212 234.786 92.814 234.036C94.188 233.394 96.27 231.984 96.738 230.916C97.188 228.426 96.93 226.938 95.496 226.116C94.062 225.294 91.8 225.042 88.8 224.814C87.906 224.748 86.772 224.694 86.292 224.64C84.492 224.442 82.782 224.31 81.408 224.22C80.2371 224.23 79.0787 223.978 78.018 223.482C77.5292 223.263 77.1338 222.879 76.902 222.396C76.614 221.76 76.62 220.83 76.062 220.776C76.062 220.776 65.802 222.522 64.974 222.606C64.026 222.702 64.65 224.076 63.762 228.18Z" fill="#455A64"/>
<path d="M87.102 224.55C87.4123 224.793 87.6696 225.098 87.858 225.444C88.0652 225.822 88.2225 226.225 88.326 226.644C88.464 227.166 87.816 227.244 87.564 226.644C87.3763 226.143 87.1307 225.666 86.832 225.222C86.6178 224.912 86.3013 224.687 85.938 224.586L85.422 224.532C85.56 224.16 86.7 224.286 87.102 224.55Z" fill="#FAFAFA"/>
<path d="M82.47 224.01C82.6427 223.986 82.8186 224 82.9854 224.05C83.1523 224.101 83.306 224.188 83.436 224.304C83.7728 224.59 84.0241 224.964 84.162 225.384C84.3412 225.888 84.4797 226.406 84.576 226.932C84.612 227.268 83.82 227.256 83.736 226.89C83.652 226.524 83.472 225.858 83.328 225.48C83.238 225.246 82.83 224.364 82.284 224.28H82.038C82.038 224.16 82.188 224.082 82.296 224.058C82.3522 224.036 82.4105 224.02 82.47 224.01Z" fill="#FAFAFA"/>
<path d="M79.752 223.926C79.9857 223.971 80.1972 224.093 80.352 224.274C80.537 224.521 80.6809 224.797 80.778 225.09C80.9417 225.627 81.0226 226.185 81.018 226.746C81.018 227.178 80.238 227.064 80.214 226.746C80.13 225.834 80.13 225.234 79.692 224.568C79.5281 224.278 79.2952 224.033 79.014 223.854C79.014 223.776 79.152 223.764 79.23 223.782C79.4065 223.821 79.5807 223.869 79.752 223.926Z" fill="#FAFAFA"/>
<path d="M63.822 211.554C63.822 211.554 64.71 220.992 64.932 223.17C65.004 223.866 66.324 224.148 67.002 224.442C67.8489 224.758 68.6375 225.212 69.336 225.786C71.058 227.496 72.336 227.898 73.398 224.898C73.4327 224.753 73.4978 224.617 73.5891 224.499C73.6803 224.381 73.7957 224.284 73.9273 224.215C74.059 224.145 74.204 224.104 74.3528 224.094C74.5015 224.085 74.6506 224.107 74.79 224.16C75.3685 224.358 75.9794 224.443 76.59 224.412C76.68 224.352 76.626 224.214 76.59 224.124C76.3227 223.791 76.1306 223.404 76.027 222.99C75.9235 222.575 75.9108 222.144 75.99 221.724C76.284 217.86 76.446 213.99 76.668 210.12L63.822 211.554Z" fill="#FFBDA7"/>
<path d="M30.774 204.63C31.974 202.68 32.376 199.056 33.252 192.324L44.346 198.042L39.6 209.694C39.4042 210.2 39.2536 210.722 39.15 211.254C37.8 213.168 30.774 204.63 30.774 204.63Z" fill="#FFBDA7"/>
<path d="M27.09 208.8C27.09 208.686 27.042 207.762 27.09 207.654C27.348 206.664 27.96 206.388 28.746 205.854C29.5342 205.323 30.2572 204.7 30.9 204C31.164 203.634 31.212 203.448 31.62 203.28C32.316 202.998 33.42 202.974 34.812 203.7C37.074 204.9 37.764 206.316 37.632 207.864C37.536 209.064 37.434 210.612 38.478 211.314C38.91 211.608 39.594 209.718 39.594 209.718C40.236 210.798 39.336 212.286 38.862 214.464C38.5907 215.669 38.5702 216.917 38.802 218.13C39.03 220.044 39.294 220.032 40.308 220.17C41.184 220.284 43.668 220.116 45.174 221.172C47.256 222.624 46.698 224.556 46.698 224.556C46.428 225.294 44.166 228.858 35.898 227.526C33.498 227.142 28.458 223.374 28.536 223.02C28.5779 222.659 28.5779 222.295 28.536 221.934C28.536 221.094 28.47 220.248 28.434 219.402C28.4604 218.599 28.4122 217.796 28.29 217.002C28.1394 216.346 28.0372 215.681 27.984 215.01C27.828 213.312 27.666 211.614 27.51 209.916C27.45 209.4 27 209.274 27.09 208.8Z" fill="#455A64"/>
<path d="M26.046 208.458C25.23 209.244 25.728 211.536 26.82 214.284C27.306 215.484 28.206 217.596 27.942 219.828C27.678 222.06 27.63 223.11 28.206 224.16C29.106 225.792 33.912 227.886 36.744 228.54C35.0305 226.141 34.032 223.305 33.864 220.362C33.576 215.436 33.204 212.262 30.954 210.084C28.104 207.318 26.046 208.458 26.046 208.458Z" fill="black"/>
<path d="M46.698 224.532C46.698 224.532 45.042 227.64 38.646 227.532C36.126 227.49 34.782 226.266 34.716 222.438C34.644 217.824 34.272 213.168 32.784 210.882C31.296 208.596 28.914 207.48 27.072 207.642C26.6406 207.774 26.2744 208.063 26.046 208.452C26.046 208.452 27.888 207.852 30.762 210.252C32.88 212.01 33.45 215.682 33.42 220.242C33.42 222.204 33.288 224.442 33.864 225.918C34.1286 226.572 34.5425 227.156 35.0728 227.621C35.6031 228.087 36.235 228.422 36.918 228.6C40.392 229.572 45.15 227.964 46.356 226.494C46.5581 226.214 46.6939 225.892 46.7532 225.552C46.8125 225.212 46.7936 224.864 46.698 224.532Z" fill="#37474F"/>
<path d="M39 219.306C39.259 219.489 39.4425 219.76 39.516 220.068C39.543 220.462 39.4636 220.855 39.2863 221.208C39.109 221.561 38.8402 221.859 38.508 222.072C38.124 222.312 37.788 222.228 38.4 221.418C38.7936 220.784 39.0014 220.052 39 219.306Z" fill="#FAFAFA"/>
<path d="M38.67 216.918C38.67 216.918 38.874 217.05 38.928 217.692C38.928 218.034 38.418 219.42 37.728 219.75C37.038 220.08 37.422 219.3 37.728 218.922C38.1902 218.334 38.5124 217.649 38.67 216.918Z" fill="#FAFAFA"/>
<path d="M38.898 214.284C38.898 214.284 39.12 214.344 38.898 215.226C38.5791 215.771 38.087 216.193 37.5 216.426C37.068 216.474 36.858 216.258 37.392 215.874C37.8 215.592 38.82 214.71 38.898 214.284Z" fill="#FAFAFA"/>
<path d="M43.038 202.5C43.038 202.5 45.072 197.73 52.314 181.536C54.504 176.634 55.074 172.998 55.626 170.592C56.226 168.09 58.674 155.76 58.674 155.76L61.83 176.268C61.2176 178.93 60.8421 181.64 60.708 184.368C60.708 187.752 61.134 192.894 62.094 199.872C63.558 210.534 63.954 216.072 63.954 216.072C64.704 216.612 67.086 217.662 71.154 217.434C73.0136 217.243 74.8274 216.738 76.518 215.94C76.518 215.94 77.442 204.846 77.826 197.112C78.18 189.972 78.768 181.902 79.068 177.594C79.668 169.506 79.824 166.02 79.908 153.27C79.992 140.07 78.984 120.606 78.984 120.606L41.478 119.742C41.478 119.742 39.012 125.25 39.768 136.638C39.474 147.756 37.824 168.918 37.824 168.918C35.7599 173.924 34.4243 179.199 33.858 184.584C33.306 189.84 32.472 196.764 32.472 196.764C36.468 196.62 40.836 199.2 43.038 202.5Z" fill="#52BFBC"/>
<path opacity="0.2" d="M58.704 155.868L56.634 141.174C56.634 141.174 51.768 140.796 45.924 135.93C45.924 135.93 46.692 140.286 54.984 143.262L57.15 158.556L55.578 171C55.578 171 58.668 156.15 58.704 155.868Z" fill="black"/>
<path d="M87.96 106.146L89.262 106.368L90.036 107.454C89.9219 107.698 89.8627 107.964 89.8627 108.234C89.8627 108.504 89.9219 108.77 90.036 109.014C90.438 109.812 91.02 109.56 91.02 109.56L91.62 108.114L91.86 106.104L90.222 104.658L88.614 104.34L87.96 106.146Z" fill="#B16668"/>
<path d="M92.688 105.486C92.8591 106.053 92.8798 106.655 92.748 107.232C92.605 107.754 92.4204 108.264 92.196 108.756C92.028 109.11 91.368 109.11 90.96 108.222C90.624 107.49 91.098 105.858 91.098 105.858L92.688 105.486Z" fill="#F0997A"/>
<path d="M95.142 103.47C95.322 104.394 95.874 106.128 95.976 106.8C96.078 107.472 95.244 107.4 95.244 107.4L93.276 104.568L95.142 103.47Z" fill="#F0997A"/>
<path d="M87.762 96.6C88.644 96.24 88.626 96.228 89.838 96.87C91.4834 97.7897 93.0542 98.8369 94.536 100.002C95.352 100.734 95.136 102.156 95.136 103.38C95.136 104.604 95.358 105.924 95.136 106.266C95.1061 106.315 95.0666 106.357 95.0198 106.391C94.9731 106.424 94.9202 106.447 94.8641 106.46C94.8081 106.472 94.7502 106.473 94.6938 106.462C94.6374 106.452 94.5837 106.43 94.536 106.398L87.762 96.6Z" fill="#FFBDA7"/>
<path d="M95.448 107.67L96.504 111.354C96.5097 111.378 96.5081 111.403 96.4992 111.425C96.4904 111.448 96.4749 111.468 96.4546 111.481C96.4344 111.495 96.4105 111.502 96.3861 111.502C96.3617 111.502 96.338 111.494 96.318 111.48L93.228 109.2L95.448 107.67Z" fill="#FFA8A7"/>
<path d="M96.336 111.486L93.228 109.2L94.428 108.396L94.698 108.786L96.42 111.372L96.336 111.486Z" fill="#F28F8F"/>
<path d="M96.318 111.48C96.3379 111.494 96.3617 111.502 96.3861 111.502C96.4105 111.502 96.4344 111.495 96.4546 111.481C96.4749 111.468 96.4904 111.448 96.4992 111.425C96.5081 111.403 96.5097 111.378 96.504 111.354L96.294 110.634C96.2387 110.744 96.1526 110.837 96.0462 110.899C95.9398 110.962 95.8175 110.993 95.694 110.988H95.628L96.318 111.48Z" fill="#263238"/>
<path d="M82.548 93.804L82.752 94.092L82.992 94.446L93.228 109.2C93.6499 109.284 94.0881 109.21 94.458 108.99C94.7141 108.867 94.9374 108.684 95.1094 108.458C95.2815 108.232 95.3975 107.968 95.448 107.688L85.2 92.94L84.732 92.268C85.026 92.724 82.83 94.254 82.548 93.804Z" fill="#455A64"/>
<path d="M82.548 93.804L82.752 94.092L82.992 94.446L93.228 109.2C93.4849 109.249 93.7495 109.242 94.0034 109.179C94.2573 109.116 94.4943 108.998 94.698 108.834L84.042 93.3C84.084 93.27 84.084 93.246 84.042 93.234C83.466 93.684 82.704 94.056 82.548 93.804Z" fill="#37474F"/>
<path d="M83.31 94.914L83.766 95.562C83.892 95.754 84.366 95.598 84.87 95.316C85.524 94.95 86.13 94.278 85.962 94.02L85.632 93.54L85.512 93.372C85.674 93.63 85.068 94.302 84.414 94.668C83.94 94.938 83.472 95.094 83.328 94.932L83.31 94.914Z" fill="#EBEBEB"/>
<path d="M83.4 95.076C83.694 95.526 85.89 93.978 85.602 93.534L85.2 92.88C85.488 93.33 83.292 94.872 82.998 94.422L83.4 95.076Z" fill="#37474F"/>
<path d="M82.548 93.804L82.992 94.446C83.274 94.89 85.392 93.42 85.218 92.94L84.762 92.292C85.026 92.724 82.83 94.254 82.548 93.804Z" fill="#EBEBEB"/>
<path d="M81.6 92.472L82.542 93.804C82.662 93.996 83.142 93.84 83.634 93.564C84.288 93.198 84.906 92.526 84.744 92.268L83.796 90.93C83.418 90.384 82.224 91.02 81.72 91.704C81.6252 91.8051 81.563 91.9325 81.5416 92.0695C81.5202 92.2065 81.5405 92.3467 81.6 92.472Z" fill="#F28F8F"/>
<path opacity="0.1" d="M82.512 92.568C82.8159 92.4694 83.0928 92.3015 83.3208 92.0776C83.5489 91.8538 83.7218 91.5801 83.826 91.278C83.8467 91.205 83.8492 91.1281 83.8336 91.0539C83.8179 90.9797 83.7844 90.9104 83.736 90.852C83.298 90.456 82.2 91.056 81.726 91.704C81.6333 91.8038 81.572 91.9287 81.5496 92.0631C81.5272 92.1975 81.5447 92.3355 81.6 92.46C81.744 92.664 82.086 92.718 82.512 92.568Z" fill="black"/>
<path d="M87.996 101.658C88.914 102.6 89.94 102.858 91.71 103.344C92.5467 103.674 93.3388 104.107 94.068 104.634C94.77 105.108 95.1 105.984 93.756 106.608C92.856 107.028 91.716 106.506 90.756 106.32C90.2756 106.229 89.7869 106.188 89.298 106.2C87.906 106.284 87.666 106.728 86.094 107.082C84.522 107.436 83.268 107.046 82.392 107.196C81.516 107.346 61.068 113.472 61.068 113.472L60.852 102.072C60.852 102.072 77.946 100.788 80.7 100.314C82.932 99.924 85.572 98.1 85.572 98.1L87.996 101.658Z" fill="#FFBDA7"/>
<path d="M82.422 99.798C81.859 100.039 81.2716 100.218 80.67 100.332C77.916 100.806 60.822 102.09 60.822 102.09L61.038 113.49C61.038 113.49 81.486 107.37 82.362 107.214C82.5615 107.194 82.7625 107.194 82.962 107.214L82.422 99.798Z" fill="#F0997A"/>
<path d="M92.586 100.326C92.4475 100.518 92.246 100.655 92.0168 100.713C91.7875 100.771 91.5451 100.747 91.332 100.644C90.972 100.452 89.778 99.51 89.778 99.51L92.778 103.812C92.6804 103.434 92.695 103.036 92.82 102.666C92.9088 102.534 93.0229 102.421 93.1558 102.333C93.2887 102.246 93.4376 102.185 93.594 102.156C93.2579 102.104 92.9143 102.176 92.628 102.36C92.4112 102.243 92.2256 102.076 92.0867 101.872C91.9479 101.668 91.8599 101.435 91.83 101.19C92.598 100.656 92.586 100.326 92.586 100.326Z" fill="#F0997A"/>
<path d="M41.214 72.93C38.73 77.676 38.916 83.052 39.636 89.73C40.296 95.862 40.758 99.666 41.322 107.256C42 115.902 40.8 121.374 40.8 121.374C40.8 121.374 45.834 128.364 56.646 131.118C75.642 135.954 79.65 129.696 79.65 129.696C79.65 129.696 79.482 123.096 79.506 117.966C79.506 113.34 79.422 107.862 79.266 103.308C78.9 92.85 78.78 84.162 77.568 80.436C76.674 78.372 75.738 77.556 73.452 76.518C71.568 75.66 67.974 73.92 65.292 72.882C60.3614 71.0986 55.3429 69.5686 50.256 68.298C48.4588 68.0805 46.6376 68.4053 45.0264 69.2307C43.4152 70.0561 42.0875 71.3443 41.214 72.93Z" fill="#37474F"/>
<path d="M66.672 68.298L65.304 72.882C62.076 72.984 54.75 71.682 53.226 70.212L54.636 64.8L66.672 68.298Z" fill="#FFBDA7"/>
<path d="M77.436 55.254C77.436 55.254 78.678 56.604 79.074 60.576L76.674 61.776C76.44 58.974 76.2 56.136 77.436 55.254Z" fill="#F0997A"/>
<path d="M73.878 43.692C77.814 44.694 79.278 48.654 77.034 56.844C77.31 65.766 74.118 68.688 72.834 69.606C70.086 70.482 67.506 70.206 64.224 68.7C61.722 67.5 55.422 64.326 53.424 59.7C51.024 54.234 51.546 46.68 55.548 44.574C61.128 41.58 71.796 43.164 73.878 43.692Z" fill="#FFBDA7"/>
<path d="M73.578 63.78C73.624 63.8011 73.6649 63.8318 73.698 63.87C73.698 63.87 73.698 63.936 73.746 63.966C73.7825 64.036 73.8225 64.1041 73.866 64.17C73.9617 64.3114 74.0745 64.4404 74.202 64.554C74.4404 64.756 74.7073 64.9218 74.994 65.046C75.0046 65.0506 75.0136 65.0581 75.02 65.0677C75.0263 65.0773 75.0298 65.0885 75.03 65.1C75.0374 65.1128 75.0413 65.1273 75.0413 65.142C75.0413 65.1567 75.0374 65.1712 75.03 65.184C74.97 65.232 74.862 65.184 74.79 65.184C74.7073 65.162 74.6269 65.1318 74.55 65.094C74.3831 65.0146 74.226 64.916 74.082 64.8C73.9418 64.6888 73.8167 64.5597 73.71 64.416C73.6565 64.3457 73.6084 64.2715 73.566 64.194L73.506 64.086C73.4818 64.0181 73.4818 63.9439 73.506 63.876C73.506 63.876 73.53 63.756 73.578 63.78Z" fill="#F0997A"/>
<path d="M72.804 69.6C72.078 70.11 68.322 70.578 66.204 69.936L66.696 68.292C68.6627 69.0048 70.7178 69.4449 72.804 69.6Z" fill="#F0997A"/>
<path d="M73.038 49.602C72.9475 50.2782 72.645 50.9084 72.174 51.402C71.5107 52.0854 70.626 52.5108 69.678 52.602C70.0438 53.7656 70.1282 54.9994 69.924 56.202C69.8862 56.5843 69.7335 56.9462 69.486 57.24C69.4033 57.3491 69.2916 57.4327 69.1637 57.4815C69.0358 57.5303 68.8968 57.5423 68.7625 57.516C68.6281 57.4898 68.5038 57.4264 68.4037 57.3331C68.3036 57.2397 68.2316 57.1202 68.196 56.988C68.0241 56.2972 67.7724 55.6287 67.446 54.996C67.0109 54.2406 66.3122 53.6722 65.484 53.4C62.346 52.5 61.416 57.474 62.388 59.4C63.978 62.544 66.024 61.092 66.024 61.092C66.024 61.092 66.318 65.544 62.898 66.822C62.898 66.822 57.57 67.614 54.498 65.274C52.098 61.542 49.866 57.348 49.404 53.982C48.396 46.656 50.604 42.498 53.838 41.898C54.732 39.312 57.516 38.112 60.078 37.698C63.558 37.098 66.54 38.742 69.888 39.33C71.6039 39.6331 73.3661 39.5428 75.042 39.066C75.786 38.856 76.692 38.604 77.238 39.132C77.4459 39.3523 77.5819 39.6306 77.628 39.93C77.7375 40.4585 77.7213 41.0054 77.5806 41.5265C77.4399 42.0477 77.1787 42.5284 76.818 42.93C77.808 42.468 79.308 43.026 80.07 43.878C81.156 45.078 81.138 46.32 80.388 47.886C79.92 48.816 77.25 51.684 73.038 49.602Z" fill="#263238"/>
<path d="M53.892 42.6L51.162 40.308C51.473 39.9478 51.9139 39.7254 52.3884 39.6894C52.8629 39.6535 53.3323 39.8068 53.694 40.116C53.8727 40.2644 54.0198 40.447 54.1268 40.6532C54.2337 40.8593 54.2983 41.0848 54.3168 41.3162C54.3352 41.5477 54.3071 41.7806 54.2342 42.0011C54.1613 42.2215 54.0449 42.4252 53.892 42.6Z" fill="#263238"/>
<path d="M108.252 124.932C107.544 124.224 106.836 123.594 106.248 123.036C105.762 122.574 105.132 121.938 104.052 120.75C103.596 120.24 103.092 120.492 102.144 120.18C101.196 119.868 101.478 119.118 100.884 118.836C100.188 118.5 99.948 118.71 99.276 118.398C98.448 118.02 98.022 117.132 97.008 117.51C95.178 118.188 94.608 119.034 92.07 116.7C85.818 110.922 81.966 107.232 81.966 107.232C81.966 107.232 80.766 91.41 80.274 87.762C79.584 82.812 79.74 79.362 73.266 77.25C73.266 77.25 68.076 79.65 68.466 89.04C68.82 97.158 69.768 105.156 70.266 109.068C70.668 112.368 71.256 112.782 75.39 115.638C85.542 122.658 87.108 123.78 88.386 124.602C90.102 125.706 91.872 127.002 93.786 127.128C95.544 127.218 98.064 126.066 99.294 125.394C101.268 124.32 102.894 123.762 103.524 123.918C104.154 124.074 105.324 125.322 106.524 125.646C107.724 125.97 108.6 125.274 108.252 124.932Z" fill="#FFBDA7"/>
<path d="M73.464 76.518C76.464 77.88 77.664 78.594 79.236 81.156C80.274 82.848 80.436 84.684 80.886 89.172C81.264 93.096 81.786 100.572 81.786 100.572C81.786 100.572 81.114 102.372 76.752 103.794C74.2328 104.658 71.4926 104.626 68.994 103.704C68.994 103.704 68.136 95.874 67.842 92.634C67.44 88.242 67.11 79.8 73.464 76.518Z" fill="#52BFBC"/>
<path d="M185.826 38.502L203.358 48.642C203.7 48.846 203.958 49.332 203.958 50.268V71.694C203.958 71.55 203.676 72.036 203.328 72.228L200.838 73.644C200.643 73.7416 200.429 73.7925 200.211 73.7925C199.993 73.7925 199.779 73.7416 199.584 73.644L182.052 63.504C181.875 63.382 181.728 63.2204 181.624 63.0319C181.52 62.8434 181.461 62.6332 181.452 62.418V40.992C181.464 40.7749 181.527 40.5636 181.636 40.3758C181.746 40.188 181.899 40.029 182.082 39.912L184.572 38.496C184.767 38.4006 184.982 38.3516 185.2 38.3526C185.417 38.3537 185.631 38.4048 185.826 38.502Z" fill="#52BFBC"/>
<path opacity="0.2" d="M199.608 73.638C199.803 73.7343 200.018 73.7844 200.235 73.7844C200.453 73.7844 200.667 73.7343 200.862 73.638L203.352 72.222C203.7 72.03 203.982 71.544 203.982 71.688V50.268C204.038 49.8572 203.969 49.4389 203.784 49.068L200.046 51.216C200.166 51.408 200.232 51.63 200.232 51.294V72.714C200.232 73.644 199.974 73.854 199.608 73.638Z" fill="black"/>
<path opacity="0.3" d="M181.458 40.878C181.512 40.56 181.77 40.452 182.058 40.626L199.584 50.772C199.77 50.8854 199.921 51.0472 200.022 51.24L203.76 49.092C203.656 48.9078 203.508 48.753 203.328 48.642L185.802 38.502C185.607 38.4044 185.393 38.3535 185.175 38.3535C184.957 38.3535 184.743 38.4044 184.548 38.502L182.058 39.918C181.897 40.0281 181.761 40.1702 181.658 40.3354C181.555 40.5006 181.487 40.6853 181.458 40.878Z" fill="white"/>
<path d="M205.698 65.616C206.088 65.382 209.088 63.696 209.184 63.636C209.254 63.5887 209.314 63.5271 209.358 63.4552C209.403 63.3833 209.432 63.3028 209.443 63.2189C209.454 63.135 209.448 63.0497 209.424 62.9686C209.4 62.8874 209.359 62.8122 209.304 62.748L204 56.64L200.232 58.8L205.8 64.74C205.854 64.8028 205.894 64.8762 205.919 64.9554C205.943 65.0346 205.95 65.118 205.941 65.2003C205.931 65.2826 205.905 65.362 205.863 65.4336C205.821 65.5051 205.765 65.5672 205.698 65.616Z" fill="#52BFBC"/>
<path opacity="0.3" d="M205.698 65.616C206.088 65.382 209.088 63.696 209.184 63.636C209.254 63.5887 209.314 63.5271 209.358 63.4552C209.403 63.3833 209.432 63.3028 209.443 63.2189C209.454 63.135 209.448 63.0497 209.424 62.9686C209.4 62.8874 209.359 62.8122 209.304 62.748L204 56.64L200.232 58.8L205.8 64.74C205.854 64.8028 205.894 64.8762 205.919 64.9554C205.943 65.0346 205.95 65.118 205.941 65.2003C205.931 65.2826 205.905 65.362 205.863 65.4336C205.821 65.5051 205.765 65.5672 205.698 65.616Z" fill="white"/>
<path d="M182.076 40.632L199.608 50.772C199.786 50.8923 199.933 51.0528 200.037 51.2404C200.141 51.428 200.2 51.6375 200.208 51.852V58.8L205.8 64.74C205.876 64.8166 205.929 64.9134 205.951 65.019C205.974 65.1245 205.966 65.2344 205.928 65.3355C205.89 65.4366 205.824 65.5246 205.737 65.5893C205.651 65.6539 205.548 65.6923 205.44 65.7L200.226 65.316V73.278C200.226 73.674 199.95 73.836 199.626 73.638L182.094 63.498C181.917 63.376 181.77 63.2144 181.666 63.0259C181.562 62.8374 181.503 62.6272 181.494 62.412V40.992C181.452 40.59 181.734 40.428 182.076 40.632Z" fill="#52BFBC"/>
<path d="M188.826 63.21H188.646C188.423 63.179 188.212 63.0931 188.031 62.9601C187.85 62.8271 187.704 62.6511 187.608 62.448L185.448 57.9C185.296 57.577 185.279 57.2068 185.4 56.8709C185.521 56.535 185.77 56.261 186.093 56.109C186.416 55.957 186.786 55.9396 187.122 56.0606C187.458 56.1815 187.732 56.431 187.884 56.754L189.162 59.4L195.336 52.2C195.575 51.9263 195.912 51.7586 196.275 51.7339C196.637 51.7091 196.994 51.8293 197.268 52.068C197.542 52.3067 197.709 52.6443 197.734 53.0067C197.759 53.369 197.639 53.7263 197.4 54L189.87 62.766C189.739 62.9116 189.577 63.0269 189.397 63.1036C189.217 63.1803 189.022 63.2166 188.826 63.21Z" fill="#FAFAFA"/>
</svg>
